<svg xmlns="http://www.w3.org/2000/svg" width="1479.797" height="407.161" viewBox="0 0 1479.797 407.161">
  <g id="Group_5882" data-name="Group 5882" transform="translate(19.475 -1990)">
    <g id="graph" transform="translate(-19.475 2070.5)">
      <g id="Rectangle" transform="translate(0 0)" fill="#edf4fc" stroke-miterlimit="10">
        <path d="M 1478.296630859375 325.1606750488281 L 1.500072598457336 325.1606750488281 L 1.500072598457336 142.3333740234375 C 4.218307495117188 144.8181304931641 9.024466514587402 149.1162872314453 15.44825458526611 154.4852294921875 C 24.93425369262695 162.4132385253906 40.00225448608398 174.3766784667969 57.91716384887695 186.3475952148438 C 78.0711669921875 199.8150482177734 97.64934539794922 210.5488739013672 116.1077117919922 218.2510528564453 C 127.0887985229492 222.8330535888672 137.7929840087891 226.3803253173828 147.92333984375 228.7943267822266 C 159.0942535400391 231.4563293457031 169.8458862304688 232.8059539794922 179.8795318603516 232.8059539794922 C 185.4984436035156 232.8059539794922 190.992431640625 232.4579620361328 196.2084350585938 231.7717742919922 C 201.1768035888672 231.1183166503906 206.0538940429688 230.1365051269531 210.7040710449219 228.8537750244141 C 219.2689819335938 226.4912261962891 227.2535247802734 223.1055908203125 235.1138916015625 218.50341796875 C 249.6193389892578 210.0106811523438 261.1427917480469 198.8015899658203 272.2868041992188 187.9614105224609 C 290.4460754394531 170.2974090576172 307.5982666015625 153.6128692626953 335.3618774414062 150.6752319335938 C 339.2146301269531 150.2675933837891 343.0506286621094 150.0608673095703 346.7629699707031 150.0608673095703 C 356.9728088378906 150.0608673095703 366.6738891601562 151.5475921630859 377.2926330566406 154.7395935058594 C 386.8113403320312 157.6008605957031 395.91552734375 161.4846801757812 405.554443359375 165.5964965820312 C 429.5051574707031 175.8137817382812 456.6515197753906 187.3943176269531 500.4115295410156 187.3943176269531 C 505.6804504394531 187.3943176269531 511.15771484375 187.2236022949219 516.6907958984375 186.8866882324219 C 522.9179077148438 186.5075988769531 528.8824462890625 185.9072265625 534.4188232421875 185.1026916503906 C 539.6958618164062 184.3357696533203 544.7564086914062 183.3579559326172 549.459716796875 182.1963195800781 C 558.144775390625 180.0514068603516 565.830810546875 177.2630462646484 572.956787109375 173.6717834472656 C 586.1640625 167.0155944824219 595.110595703125 158.71923828125 603.7626342773438 150.6961364746094 C 619.5973510742188 136.011962890625 634.5540771484375 122.1423187255859 673.8419189453125 119.780143737793 C 677.3759155273438 119.5675964355469 680.9080810546875 119.4599609375 684.340087890625 119.4599609375 C 692.5516967773438 119.4599609375 700.369140625 120.0490493774414 708.2393188476562 121.2608642578125 C 715.2749633789062 122.3443222045898 722.2115478515625 123.9077758789062 729.4453735351562 126.0405044555664 C 742.947509765625 130.0215911865234 755.1340942382812 135.2810516357422 768.0360717773438 140.8494110107422 C 781.7877197265625 146.7845001220703 796.0075073242188 152.9216003417969 812.2440795898438 157.5401458740234 C 821.018798828125 160.0361480712891 829.5791625976562 161.8715972900391 838.4140625 163.1514129638672 C 848.360595703125 164.5923156738281 858.3673706054688 165.2926788330078 869.0060424804688 165.2926788330078 C 872.5906372070312 165.2926788330078 876.2793579101562 165.209228515625 879.9697265625 165.0448608398438 C 887.0773315429688 164.7281341552734 893.9651489257812 164.1734161376953 900.44189453125 163.3957824707031 C 906.6002807617188 162.6565093994141 912.5838623046875 161.692138671875 918.2269897460938 160.5294189453125 C 928.6100463867188 158.3899536132812 938.067138671875 155.5694122314453 947.1387939453125 151.9066925048828 C 963.9035034179688 145.1377716064453 976.1802368164062 136.744873046875 988.0526123046875 128.6281433105469 C 996.0349731445312 123.1708679199219 1003.574829101562 118.0163192749023 1012.0986328125 113.6025009155273 C 1016.653686523438 111.2439575195312 1021.090270996094 109.3043212890625 1025.661865234375 107.6730499267578 C 1030.766235351562 105.8515930175781 1035.93310546875 104.4485015869141 1041.458251953125 103.3835983276367 C 1046.750122070312 102.363410949707 1052.492797851562 101.846321105957 1058.52685546875 101.846321105957 C 1066.076293945312 101.846321105957 1074.411865234375 102.6599578857422 1083.302124023438 104.2646865844727 C 1091.298583984375 105.7079620361328 1099.788208007812 107.7725067138672 1109.256103515625 110.5765075683594 C 1126.791870117188 115.769775390625 1144.418212890625 122.546501159668 1161.464477539062 129.0999603271484 C 1185.9345703125 138.5077819824219 1209.047729492188 147.3937835693359 1227.08056640625 149.5228729248047 C 1228.731323242188 149.7177734375 1230.402954101562 149.8164978027344 1232.049194335938 149.8164978027344 C 1234.8203125 149.8164978027344 1237.632446289062 149.5361480712891 1240.407836914062 148.9832305908203 C 1243.04931640625 148.4570465087891 1245.744262695312 147.6663208007812 1248.418090820312 146.633056640625 C 1253.328979492188 144.735595703125 1258.282592773438 142.0077819824219 1263.56201171875 138.2939605712891 C 1273.29931640625 131.4439544677734 1282.389404296875 122.502685546875 1292.01318359375 113.0363235473633 C 1301.402587890625 103.8005065917969 1311.111694335938 94.25032043457031 1321.405395507812 86.91068267822266 C 1326.917358398438 82.98032379150391 1332.12158203125 80.00559234619141 1337.31494140625 77.81632232666016 C 1343.123901367188 75.36759185791016 1348.76318359375 73.96068572998047 1354.555297851562 73.51522827148438 C 1360.758422851562 73.03795623779297 1367.617309570312 71.59450531005859 1374.94189453125 69.22505187988281 C 1381.566284179688 67.08195495605469 1388.724975585938 64.1319580078125 1396.219116210938 60.45705032348633 C 1408.803344726562 54.28632354736328 1422.564086914062 45.97886657714844 1437.119384765625 35.76541137695312 C 1444.258422851562 30.75577735900879 1455.470947265625 22.54104995727539 1468.344970703125 11.85504913330078 C 1472.738037109375 8.208550453186035 1476.158935546875 5.239426136016846 1478.296630859375 3.35291314125061 L 1478.296630859375 325.1606750488281 Z" stroke="none"/>
        <path d="M 1476.796508789062 6.65887451171875 C 1474.817016601562 8.3741455078125 1472.295043945312 10.52572631835938 1469.302856445312 13.00930786132812 C 1456.390258789062 23.72732543945312 1445.142456054688 31.96771240234375 1437.980712890625 36.99313354492188 C 1423.36181640625 47.25152587890625 1409.533447265625 55.59890747070312 1396.879638671875 61.80392456054688 C 1389.3212890625 65.5101318359375 1382.095703125 68.48712158203125 1375.403442382812 70.65213012695312 C 1367.966796875 73.05812072753906 1360.991088867188 74.52471923828125 1354.670288085938 75.01092529296875 C 1349.041625976562 75.44392395019531 1343.555297851562 76.813720703125 1337.897705078125 79.19851684570312 C 1332.807006835938 81.34452819824219 1327.697265625 84.26652526855469 1322.276123046875 88.13192749023438 C 1312.0791015625 95.40272521972656 1302.412841796875 104.9107208251953 1293.065063476562 114.1057281494141 C 1283.821411132812 123.1979217529297 1274.263305664062 132.5999298095703 1264.425048828125 139.5207214355469 C 1259.044189453125 143.3059234619141 1253.985229492188 146.0901184082031 1248.958618164062 148.0323181152344 C 1246.204833984375 149.0963287353516 1243.426513671875 149.9113159179688 1240.701049804688 150.4543151855469 C 1237.829223632812 151.0263214111328 1234.91845703125 151.3165283203125 1232.04931640625 151.3165283203125 C 1230.345458984375 151.3165283203125 1228.614624023438 151.2141265869141 1226.904663085938 151.0125274658203 C 1218.556640625 150.0269165039062 1208.806640625 147.6305236816406 1196.220458984375 143.4709167480469 C 1185.144409179688 139.8105163574219 1173.382080078125 135.2879180908203 1160.929077148438 130.4999237060547 C 1143.90966796875 123.9563293457031 1126.310791015625 117.1899261474609 1108.831420898438 112.0135192871094 C 1099.41650390625 109.2251281738281 1090.978881835938 107.1731262207031 1083.036499023438 105.7397155761719 C 1074.233642578125 104.151123046875 1065.987426757812 103.3457183837891 1058.527099609375 103.3463287353516 C 1052.586181640625 103.3467254638672 1046.939086914062 103.8547210693359 1041.742065429688 104.8565216064453 C 1036.292724609375 105.9069213867188 1031.197875976562 107.2903289794922 1026.166015625 109.0857238769531 C 1021.65869140625 110.6941223144531 1017.282836914062 112.6073150634766 1012.788269042969 114.9345245361328 C 1004.345825195312 119.3063201904297 996.8426513671875 124.4357147216797 988.8990478515625 129.8665161132812 C 976.9608154296875 138.0281219482422 964.6158447265625 146.4677276611328 947.7002563476562 153.2977294921875 C 938.5440673828125 156.9945220947266 929.0022583007812 159.8407287597656 918.5296630859375 161.9985198974609 C 912.8458251953125 163.1697235107422 906.8204345703125 164.1409149169922 900.620849609375 164.8851165771484 C 894.1070556640625 165.6671295166016 887.1814575195312 166.2249298095703 880.0364379882812 166.5433197021484 C 876.3212280273438 166.7087249755859 872.6100463867188 166.792724609375 869.0062255859375 166.792724609375 C 858.2950439453125 166.792724609375 848.2180786132812 166.0873260498047 838.1996459960938 164.6359252929688 C 829.2982788085938 163.3465270996094 820.6742553710938 161.4973297119141 811.8346557617188 158.9829254150391 C 795.5042724609375 154.3373260498047 781.2390747070312 148.1805267333984 767.4434814453125 142.226318359375 C 742.1026611328125 131.2891235351562 718.1670532226562 120.9585266113281 684.3402709960938 120.9599151611328 C 680.9364624023438 120.9601287841797 677.4344482421875 121.0669250488281 673.931884765625 121.2775268554688 C 664.5454711914062 121.8419189453125 656.3406372070312 123.0643157958984 648.848876953125 125.0145263671875 C 642.2076416015625 126.7433166503906 636.2638549804688 129.0149230957031 630.6776733398438 131.9593200683594 C 620.242431640625 137.4595184326172 612.7328491210938 144.4233245849609 604.782470703125 151.7959289550781 C 596.0540771484375 159.8899230957031 587.0284423828125 168.2597198486328 573.6318359375 175.0111236572266 C 566.4042358398438 178.6537170410156 558.6150512695312 181.4803161621094 549.8192749023438 183.6525268554688 C 545.0686645507812 184.8257293701172 539.9598388671875 185.8131256103516 534.6344604492188 186.5871276855469 C 529.0570678710938 187.3975219726562 523.0504760742188 188.0021209716797 516.7820434570312 188.3837280273438 C 511.2180786132812 188.7225189208984 505.7102661132812 188.8943176269531 500.4114379882812 188.8943176269531 C 456.3470458984375 188.8943176269531 429.05126953125 177.2497253417969 404.9688720703125 166.9759216308594 C 395.3690185546875 162.8805236816406 386.301513671875 159.0121154785156 376.8623046875 156.1747283935547 C 366.3870849609375 153.026123046875 356.8228759765625 151.5601196289062 346.7630615234375 151.5609283447266 C 343.1004638671875 151.5611267089844 339.317626953125 151.7649230957031 335.5196533203125 152.1669158935547 C 328.9810791015625 152.8587188720703 322.9000244140625 154.3215179443359 316.9296875 156.6387176513672 C 311.5760498046875 158.7165222167969 306.4078369140625 161.4495239257812 301.1298828125 164.9941253662109 C 291.1790771484375 171.6769256591797 282.510498046875 180.1091156005859 273.3326416015625 189.0365295410156 C 262.12451171875 199.9391174316406 250.53466796875 211.2129211425781 235.8717041015625 219.7979125976562 C 227.897216796875 224.4667205810547 219.7952880859375 227.9019165039062 211.1029052734375 230.2997131347656 C 206.38623046875 231.6007232666016 201.4407958984375 232.5963134765625 196.404052734375 233.2589111328125 C 191.123291015625 233.9537200927734 185.5635986328125 234.3059234619141 179.87939453125 234.3059234619141 C 169.7288818359375 234.3059234619141 158.8602294921875 232.9425201416016 147.57568359375 230.2535247802734 C 137.3670654296875 227.8209228515625 126.58544921875 224.2483215332031 115.530029296875 219.6353149414062 C 96.982421875 211.8959197998047 77.318115234375 201.1159210205078 57.0836181640625 187.5949249267578 C 39.1136474609375 175.5869293212891 24.00048828125 163.5877227783203 14.4864501953125 155.6361236572266 C 9.6629638671875 151.6048126220703 5.7869873046875 148.2120361328125 3 145.7163391113281 L 3 323.6607360839844 L 1476.796508789062 323.6607360839844 L 1476.796508789062 6.65887451171875 M 1479.796508789062 -9.1552734375e-05 L 1479.796508789062 326.6607360839844 L 0 326.6607360839844 L 0 138.8951263427734 C 0 138.8951263427734 96.7080078125 231.3059234619141 179.87939453125 231.3059234619141 C 263.0509033203125 231.3059234619141 272.4404296875 155.8245239257812 335.2041015625 149.1835174560547 C 339.21484375 148.7591552734375 343.0634765625 148.5611877441406 346.762939453125 148.5608673095703 C 397.6116943359375 148.5565032958984 421.9720458984375 185.8942413330078 500.4114379882812 185.8942413330078 C 505.5676879882812 185.8942413330078 510.9531860351562 185.7331085205078 516.5996704101562 185.3893280029297 C 614.3922729492188 179.4353179931641 590.7262573242188 123.2747192382812 673.7518310546875 118.2829284667969 C 677.38525390625 118.0644683837891 680.9156494140625 117.9601440429688 684.340087890625 117.9600067138672 C 756.1676635742188 117.9570770263672 784.4141235351562 163.7926483154297 869.0062255859375 163.7926483154297 C 872.5386352539062 163.7926483154297 876.1668701171875 163.7127990722656 879.903076171875 163.5463256835938 C 977.3766479492188 159.2029266357422 983.4388427734375 113.0397186279297 1041.17431640625 101.9107208251953 C 1046.752563476562 100.8354339599609 1052.5595703125 100.3467254638672 1058.52685546875 100.3462982177734 C 1114.321655273438 100.3422393798828 1184.825927734375 143.0238800048828 1227.256469726562 148.0331268310547 C 1228.873291015625 148.2240142822266 1230.473022460938 148.3164825439453 1232.04931640625 148.3164825439453 C 1276.263671875 148.3164825439453 1305.159423828125 75.81057739257812 1354.440307617188 72.01972961425781 C 1405.47802734375 68.09353637695312 1479.796508789062 -9.1552734375e-05 1479.796508789062 -9.1552734375e-05 Z" stroke="none" fill="#ced6e9"/>
      </g>
      <g id="Oval" transform="translate(157.815 222.231)" fill="#ced6e9" stroke="#29abe2" stroke-miterlimit="10" stroke-width="2">
        <circle cx="6.583" cy="6.583" r="6.583" stroke="none"/>
        <circle cx="6.583" cy="6.583" r="5.583" fill="none"/>
      </g>
      <g id="Oval-2" data-name="Oval" transform="translate(332.474 142.5)" fill="#ced6e9" stroke="#29abe2" stroke-miterlimit="10" stroke-width="2">
        <ellipse cx="7" cy="6.5" rx="7" ry="6.5" stroke="none"/>
        <ellipse cx="7" cy="6.5" rx="6" ry="5.5" fill="none"/>
      </g>
      <g id="Oval-3" data-name="Oval" transform="translate(499.988 179.049)" fill="#ced6e9" stroke="#29abe2" stroke-miterlimit="10" stroke-width="2">
        <circle cx="6.583" cy="6.583" r="6.583" stroke="none"/>
        <circle cx="6.583" cy="6.583" r="5.583" fill="none"/>
      </g>
      <g id="Oval-4" data-name="Oval" transform="translate(671.914 112.782)" fill="#ced6e9" stroke="#29abe2" stroke-miterlimit="10" stroke-width="2">
        <circle cx="6.583" cy="6.583" r="6.583" stroke="none"/>
        <circle cx="6.583" cy="6.583" r="5.583" fill="none"/>
      </g>
      <g id="Oval-5" data-name="Oval" transform="translate(880.474 156.5)" fill="#ced6e9" stroke="#29abe2" stroke-miterlimit="10" stroke-width="2">
        <ellipse cx="6.5" cy="7" rx="6.5" ry="7" stroke="none"/>
        <ellipse cx="6.5" cy="7" rx="5.5" ry="6" fill="none"/>
      </g>
      <g id="Oval-6" data-name="Oval" transform="translate(1057.869 96.215)" fill="#ced6e9" stroke="#29abe2" stroke-miterlimit="10" stroke-width="2">
        <circle cx="6.583" cy="6.583" r="6.583" stroke="none"/>
        <circle cx="6.583" cy="6.583" r="5.583" fill="none"/>
      </g>
      <g id="Oval-7" data-name="Oval" transform="translate(1228.475 142.5)" fill="#ced6e9" stroke="#29abe2" stroke-miterlimit="10" stroke-width="2">
        <circle cx="6.5" cy="6.5" r="6.5" stroke="none"/>
        <circle cx="6.5" cy="6.5" r="5.5" fill="none"/>
      </g>
      <g id="Oval-8" data-name="Oval" transform="translate(1343.564 67.298)" fill="#ced6e9" stroke="#29abe2" stroke-miterlimit="10" stroke-width="2">
        <circle cx="6.583" cy="6.583" r="6.583" stroke="none"/>
        <circle cx="6.583" cy="6.583" r="5.583" fill="none"/>
      </g>
    </g>
    <circle id="Oval-9" data-name="Oval" cx="31.5" cy="31.5" r="31.5" transform="translate(114 2208)" fill="#eee"/>
    <circle id="Oval-10" data-name="Oval" cx="31.5" cy="31.5" r="31.5" transform="translate(459 2162)" fill="#eee"/>
    <circle id="Oval-11" data-name="Oval" cx="31.5" cy="31.5" r="31.5" transform="translate(836 2131)" fill="#eee"/>
    <circle id="Oval-12" data-name="Oval" cx="31.5" cy="31.5" r="31.5" transform="translate(1181 2119)" fill="#eee"/>
    <circle id="Oval-13" data-name="Oval" cx="31.5" cy="31.5" r="31.5" transform="translate(1373 1990)" fill="#eee"/>
    <path id="np_euro_2328317_FFFFFF" d="M35.652,28.4a.8.8,0,0,0-1.129.037,8.631,8.631,0,0,1-6.079,2.621,9.308,9.308,0,0,1-8.009-5.206h8.3a.824.824,0,0,0,.838-.838v-2.84a.824.824,0,0,0-.838-.838H18.979a12.109,12.109,0,0,1-.073-1.6,13.321,13.321,0,0,1,.109-1.638h9.719a.824.824,0,0,0,.838-.838v-2.84a.824.824,0,0,0-.838-.838h-8.3a9.337,9.337,0,0,1,8.009-5.206,8.608,8.608,0,0,1,6.079,2.658.806.806,0,0,0,1.129.037l3.167-2.912a.908.908,0,0,0,.292-.619.982.982,0,0,0-.219-.619A14.583,14.583,0,0,0,28.479,2.406c-6.371,0-12.158,4.478-14.452,11.14h-3.5a.824.824,0,0,0-.838.838v2.84a.824.824,0,0,0,.838.838H13.08c-.037.583-.073,1.129-.073,1.638s.037,1.055.073,1.6H10.532a.824.824,0,0,0-.838.838v2.84a.824.824,0,0,0,.838.838h3.5c2.294,6.662,8.081,11.14,14.452,11.14a14.523,14.523,0,0,0,10.412-4.513.879.879,0,0,0,.255-.619.9.9,0,0,0-.292-.619Z" transform="translate(121.49 2219.752)" fill="#9bd025"/>
    <path id="np_euro_2328317_FFFFFF-2" data-name="np_euro_2328317_FFFFFF" d="M35.652,28.4a.8.8,0,0,0-1.129.037,8.631,8.631,0,0,1-6.079,2.621,9.308,9.308,0,0,1-8.009-5.206h8.3a.824.824,0,0,0,.838-.838v-2.84a.824.824,0,0,0-.838-.838H18.979a12.109,12.109,0,0,1-.073-1.6,13.321,13.321,0,0,1,.109-1.638h9.719a.824.824,0,0,0,.838-.838v-2.84a.824.824,0,0,0-.838-.838h-8.3a9.337,9.337,0,0,1,8.009-5.206,8.608,8.608,0,0,1,6.079,2.658.806.806,0,0,0,1.129.037l3.167-2.912a.908.908,0,0,0,.292-.619.982.982,0,0,0-.219-.619A14.583,14.583,0,0,0,28.479,2.406c-6.371,0-12.158,4.478-14.452,11.14h-3.5a.824.824,0,0,0-.838.838v2.84a.824.824,0,0,0,.838.838H13.08c-.037.583-.073,1.129-.073,1.638s.037,1.055.073,1.6H10.532a.824.824,0,0,0-.838.838v2.84a.824.824,0,0,0,.838.838h3.5c2.294,6.662,8.081,11.14,14.452,11.14a14.523,14.523,0,0,0,10.412-4.513.879.879,0,0,0,.255-.619.9.9,0,0,0-.292-.619Z" transform="translate(466.49 2173.752)" fill="#9bd025"/>
    <path id="np_euro_2328317_FFFFFF-3" data-name="np_euro_2328317_FFFFFF" d="M35.652,28.4a.8.8,0,0,0-1.129.037,8.631,8.631,0,0,1-6.079,2.621,9.308,9.308,0,0,1-8.009-5.206h8.3a.824.824,0,0,0,.838-.838v-2.84a.824.824,0,0,0-.838-.838H18.979a12.109,12.109,0,0,1-.073-1.6,13.321,13.321,0,0,1,.109-1.638h9.719a.824.824,0,0,0,.838-.838v-2.84a.824.824,0,0,0-.838-.838h-8.3a9.337,9.337,0,0,1,8.009-5.206,8.608,8.608,0,0,1,6.079,2.658.806.806,0,0,0,1.129.037l3.167-2.912a.908.908,0,0,0,.292-.619.982.982,0,0,0-.219-.619A14.583,14.583,0,0,0,28.479,2.406c-6.371,0-12.158,4.478-14.452,11.14h-3.5a.824.824,0,0,0-.838.838v2.84a.824.824,0,0,0,.838.838H13.08c-.037.583-.073,1.129-.073,1.638s.037,1.055.073,1.6H10.532a.824.824,0,0,0-.838.838v2.84a.824.824,0,0,0,.838.838h3.5c2.294,6.662,8.081,11.14,14.452,11.14a14.523,14.523,0,0,0,10.412-4.513.879.879,0,0,0,.255-.619.9.9,0,0,0-.292-.619Z" transform="translate(843.49 2142.752)" fill="#9bd025"/>
    <path id="np_euro_2328317_FFFFFF-4" data-name="np_euro_2328317_FFFFFF" d="M35.652,28.4a.8.8,0,0,0-1.129.037,8.631,8.631,0,0,1-6.079,2.621,9.308,9.308,0,0,1-8.009-5.206h8.3a.824.824,0,0,0,.838-.838v-2.84a.824.824,0,0,0-.838-.838H18.979a12.109,12.109,0,0,1-.073-1.6,13.321,13.321,0,0,1,.109-1.638h9.719a.824.824,0,0,0,.838-.838v-2.84a.824.824,0,0,0-.838-.838h-8.3a9.337,9.337,0,0,1,8.009-5.206,8.608,8.608,0,0,1,6.079,2.658.806.806,0,0,0,1.129.037l3.167-2.912a.908.908,0,0,0,.292-.619.982.982,0,0,0-.219-.619A14.583,14.583,0,0,0,28.479,2.406c-6.371,0-12.158,4.478-14.452,11.14h-3.5a.824.824,0,0,0-.838.838v2.84a.824.824,0,0,0,.838.838H13.08c-.037.583-.073,1.129-.073,1.638s.037,1.055.073,1.6H10.532a.824.824,0,0,0-.838.838v2.84a.824.824,0,0,0,.838.838h3.5c2.294,6.662,8.081,11.14,14.452,11.14a14.523,14.523,0,0,0,10.412-4.513.879.879,0,0,0,.255-.619.9.9,0,0,0-.292-.619Z" transform="translate(1188.49 2130.752)" fill="#9bd025"/>
    <path id="np_euro_2328317_FFFFFF-5" data-name="np_euro_2328317_FFFFFF" d="M35.652,28.4a.8.8,0,0,0-1.129.037,8.631,8.631,0,0,1-6.079,2.621,9.308,9.308,0,0,1-8.009-5.206h8.3a.824.824,0,0,0,.838-.838v-2.84a.824.824,0,0,0-.838-.838H18.979a12.109,12.109,0,0,1-.073-1.6,13.321,13.321,0,0,1,.109-1.638h9.719a.824.824,0,0,0,.838-.838v-2.84a.824.824,0,0,0-.838-.838h-8.3a9.337,9.337,0,0,1,8.009-5.206,8.608,8.608,0,0,1,6.079,2.658.806.806,0,0,0,1.129.037l3.167-2.912a.908.908,0,0,0,.292-.619.982.982,0,0,0-.219-.619A14.583,14.583,0,0,0,28.479,2.406c-6.371,0-12.158,4.478-14.452,11.14h-3.5a.824.824,0,0,0-.838.838v2.84a.824.824,0,0,0,.838.838H13.08c-.037.583-.073,1.129-.073,1.638s.037,1.055.073,1.6H10.532a.824.824,0,0,0-.838.838v2.84a.824.824,0,0,0,.838.838h3.5c2.294,6.662,8.081,11.14,14.452,11.14a14.523,14.523,0,0,0,10.412-4.513.879.879,0,0,0,.255-.619.9.9,0,0,0-.292-.619Z" transform="translate(1380.49 2001.752)" fill="#9bd025"/>
  </g>
</svg>
