<svg xmlns="http://www.w3.org/2000/svg" width="460.727" height="270.83" viewBox="0 0 460.727 270.83">
  <g id="Group_5796" data-name="Group 5796" transform="translate(-1056 -3391.417)">
    <path id="np_data_2725597_FFFFFF" d="M17.238,22.9a12.1,12.1,0,0,1,12,12,11.516,11.516,0,0,1-4.368,9l40.64,61.094a11.7,11.7,0,0,1,6-1.641,13.308,13.308,0,0,1,10.909,5.731l31.64-17.449a16.01,16.01,0,0,1-1.087-5.177,13.1,13.1,0,0,1,13.093-13.093A13.27,13.27,0,0,1,139.15,86.453a11.444,11.444,0,0,1-2.45,7.361l34.888,29.72a13.273,13.273,0,0,1,9-3.547,13.1,13.1,0,0,1,13.092,13.092,10.988,10.988,0,0,1-.82,4.091l30.82,13.913a13.3,13.3,0,0,1,11.452-6.541,13.1,13.1,0,0,1,13.093,13.092,13.093,13.093,0,0,1-26.185,0,10.988,10.988,0,0,1,.82-4.091l-30.82-13.913a13.3,13.3,0,0,1-11.452,6.541A13.1,13.1,0,0,1,167.5,133.08a11.443,11.443,0,0,1,2.45-7.361L135.316,96.263a13.225,13.225,0,0,1-19.91-2.184l-31.64,17.449a16.01,16.01,0,0,1,1.087,5.177A13.1,13.1,0,0,1,71.759,129.8a13.27,13.27,0,0,1-13.093-13.092,12.913,12.913,0,0,1,4.911-10.088L22.949,45.535A12.407,12.407,0,0,1,17.495,46.9a12.1,12.1,0,0,1-12-12A11.72,11.72,0,0,1,17.239,22.9Z" transform="translate(1268.5 3491.52)" fill="#ced6e9" opacity="0.298"/>
    <path id="np_data_2725597_FFFFFF-2" data-name="np_data_2725597_FFFFFF" d="M17.238,22.9a12.1,12.1,0,0,1,12,12,11.516,11.516,0,0,1-4.368,9l40.64,61.094a11.7,11.7,0,0,1,6-1.641,13.308,13.308,0,0,1,10.909,5.731l31.64-17.449a16.01,16.01,0,0,1-1.087-5.177,13.1,13.1,0,0,1,13.093-13.093A13.27,13.27,0,0,1,139.15,86.453a11.444,11.444,0,0,1-2.45,7.361l34.888,29.72a13.273,13.273,0,0,1,9-3.547,13.1,13.1,0,0,1,13.092,13.092,10.988,10.988,0,0,1-.82,4.091l30.82,13.913a13.3,13.3,0,0,1,11.452-6.541,13.1,13.1,0,0,1,13.093,13.092,13.093,13.093,0,0,1-26.185,0,10.988,10.988,0,0,1,.82-4.091l-30.82-13.913a13.3,13.3,0,0,1-11.452,6.541A13.1,13.1,0,0,1,167.5,133.08a11.443,11.443,0,0,1,2.45-7.361L135.316,96.263a13.225,13.225,0,0,1-19.91-2.184l-31.64,17.449a16.01,16.01,0,0,1,1.087,5.177A13.1,13.1,0,0,1,71.759,129.8a13.27,13.27,0,0,1-13.093-13.092,12.913,12.913,0,0,1,4.911-10.088L22.949,45.535A12.407,12.407,0,0,1,17.495,46.9a12.1,12.1,0,0,1-12-12A11.72,11.72,0,0,1,17.239,22.9Z" transform="translate(1050.5 3368.52)" fill="#ced6e9" opacity="0.298"/>
  </g>
</svg>
