<svg xmlns="http://www.w3.org/2000/svg" width="1235.461" height="321.824" viewBox="0 0 1235.461 321.824">
  <g id="Group_35" data-name="Group 35" transform="translate(-2355 -3479.362)">
    <path id="Path_148" data-name="Path 148" d="M2614.1,3651.509l21.781-102.478,19.26,102.478Z" transform="translate(73.519 76.053)" fill="#3b6b2c"/>
    <path id="Path_149" data-name="Path 149" d="M2592.7,3704.354,2622.66,3577.5l20.847,126.857Z" transform="translate(57.887 38.306)" fill="#3b6b2c"/>
    <path id="Path_150" data-name="Path 150" d="M2966.528,3570.891l15.893-67.3,11.059,67.3Z" transform="translate(479.461)" fill="#3b6b2c"/>
    <path id="Path_151" data-name="Path 151" d="M2554.235,3660.542l18.835-88.619,16.657,88.619Z" transform="translate(32.654 81.549)" fill="#3b6b2c"/>
    <path id="Path_152" data-name="Path 152" d="M3023.477,3563.537l15.562-65.9,10.824,65.9Z" transform="translate(479.461)" fill="#3b6b2c"/>
    <path id="Path_153" data-name="Path 153" d="M2576.684,3713.732l22.888-96.907,5.394-22.836,19.66,119.743Z" transform="translate(46.391 8.655)" fill="#3b6b2c"/>
    <path id="Path_154" data-name="Path 154" d="M3010.464,3553.241l15.894-67.293,11.059,67.293Z" transform="translate(479.461)" fill="#3b6b2c"/>
    <g id="Group_32" data-name="Group 32" transform="translate(2960.042 3577.313)">
      <path id="Path_155" data-name="Path 155" d="M2731.436,3695.052l25.136-96.335,13.439,96.335Z" transform="translate(-2707.426 -3582.646)" fill="#3b6b2c"/>
      <path id="Path_156" data-name="Path 156" d="M2718.808,3687.683l19.94-97.418,18.594,95.566Z" transform="translate(-2718.808 -3590.264)" fill="#3b6b2c"/>
    </g>
    <g id="Group_33" data-name="Group 33" transform="translate(2449.006 3697.781)">
      <path id="Path_157" data-name="Path 157" d="M2461.634,3754.767l22.937-87.909,12.264,87.909Z" transform="translate(-2442.643 -3666.858)" fill="#3b6b2c"/>
      <path id="Path_158" data-name="Path 158" d="M2449.006,3735.46l15.771-77.054L2479.484,3734Z" transform="translate(-2449.006 -3643.406)" fill="#3b6b2c"/>
      <path id="Path_2505" data-name="Path 2505" d="M2449.006,3717.505l12.1-59.1,11.28,57.976Z" transform="translate(-2464.006 -3614.451)" fill="#3b6b2c"/>
    </g>
    <g id="Group_34" data-name="Group 34" transform="translate(3169.63 3540.716)">
      <path id="Path_159" data-name="Path 159" d="M2837.419,3609.636l18.309-77.516,12.736,77.516Z" transform="translate(-2837.419 -3532.12)" fill="#3b6b2c"/>
      <path id="Path_160" data-name="Path 160" d="M2870.537,3647.215l24.931-95.553,13.331,95.553Z" transform="translate(-2837.419 -3577.008)" fill="#3b6b2c"/>
      <path id="Path_161" data-name="Path 161" d="M2857.909,3602.733,2868.4,3551.5l9.779,50.261Z" transform="translate(-2837.419 -3532.12)" fill="#3b6b2c"/>
    </g>
    <path id="Path_162" data-name="Path 162" d="M3045.233,3556.879l18.309-77.516,12.736,77.516Z" transform="translate(479.461)" fill="#3b6b2c"/>
    <path id="Path_163" data-name="Path 163" d="M3078.35,3574.433l13.22-50.666,7.068,50.666Z" transform="translate(479.461 14.333)" fill="#3b6b2c"/>
    <path id="Path_164" data-name="Path 164" d="M3065.723,3566.55l10.487-51.235,9.779,50.261Z" transform="translate(479.461)" fill="#3b6b2c"/>
    <path id="Path_165" data-name="Path 165" d="M2874.125,3643.2l11.964-50.668,8.324,50.668Z" transform="translate(338.312 36.529)" fill="#3b6b2c"/>
    <path id="Path_166" data-name="Path 166" d="M2906.519,3618.784l19.565-84.523,14.284,84.523Z" transform="translate(345.863 -16.141)" fill="#3b6b2c"/>
    <path id="Path_167" data-name="Path 167" d="M2990.938,3569.42l16.516-71.363,12.059,71.363Z" transform="translate(479.461)" fill="#3b6b2c"/>
    <path id="Path_168" data-name="Path 168" d="M3590.461,3559.933l-87.151-12.591-228.572,25.76-156.447,68.47-137.079,29.348-166.877-17.93q-73.434,17.251-146.864,34.5l-88.934,58.234L2355,3801.186H3590.461Z" transform="translate(0 0)" fill="#aecd55"/>
  </g>
</svg>
