<svg xmlns="http://www.w3.org/2000/svg" xmlns:xlink="http://www.w3.org/1999/xlink" width="91" height="91" viewBox="0 0 91 91">
  <defs>
    <filter id="Oval" x="0" y="0" width="91" height="91" filterUnits="userSpaceOnUse">
      <feOffset dy="3" input="SourceAlpha"/>
      <feGaussianBlur stdDeviation="3.5" result="blur"/>
      <feFlood flood-opacity="0.161"/>
      <feComposite operator="in" in2="blur"/>
      <feComposite in="SourceGraphic"/>
    </filter>
  </defs>
  <g id="Group_5862" data-name="Group 5862" transform="translate(-607.5 -1254.5)">
    <g transform="matrix(1, 0, 0, 1, 607.5, 1254.5)" filter="url(#Oval)">
      <circle id="Oval-2" data-name="Oval" cx="35" cy="35" r="35" transform="translate(10.5 7.5)" fill="#fff"/>
    </g>
    <path id="np_distance_947380_000000" d="M8.171,2A6.068,6.068,0,0,0,2,8.157a10.1,10.1,0,0,0,.495,2.859L8.157,23.11,13.82,11.016a10.154,10.154,0,0,0,.495-2.859A6.046,6.046,0,0,0,8.171,2ZM8.157,5.518A2.639,2.639,0,1,1,5.518,8.157,2.639,2.639,0,0,1,8.157,5.518ZM37.17,20.471a6.951,6.951,0,0,0-7.023,7.037,10.533,10.533,0,0,0,.563,3.106l6.473,13.606,6.473-13.606a10.467,10.467,0,0,0,.563-3.106,6.974,6.974,0,0,0-7.05-7.037ZM9.779,21.722l-.77,1.636,14.128,2.969L14.562,35.3a.88.88,0,0,0,.344,1.443l21.179,7.2-1.058-2.226-18.238-6.2L25.5,26.408a.88.88,0,0,0-.454-1.471Zm27.4,2.707a3.079,3.079,0,1,1-3.079,3.079A3.078,3.078,0,0,1,37.184,24.43Z" transform="translate(631 1275)" fill="#ff963c"/>
  </g>
</svg>
