<svg xmlns="http://www.w3.org/2000/svg" xmlns:xlink="http://www.w3.org/1999/xlink" width="100" height="100" viewBox="0 0 91 91">
  <defs>
    <filter id="Oval" x="0" y="0" filterUnits="userSpaceOnUse">
      <feOffset dy="3" input="SourceAlpha"/>
      <feGaussianBlur stdDeviation="3.5" result="blur"/>
      <feFlood flood-opacity="0.161"/>
      <feComposite operator="in" in2="blur"/>
      <feComposite in="SourceGraphic"/>
    </filter>
  </defs>
  <g id="Group_5863" data-name="Group 5863" transform="translate(-607.5 -1371.5)">
    
    <g id="Group_5722" data-name="Group 5722" transform="translate(172.396 881.753)">
      <path id="Path_2400" data-name="Path 2400" d="M0,0,18.433,6.316,39.36,0V4.224L19.315,11.378,0,4.224Z" transform="translate(460.66 526.407)" fill="#9bd025"/>
      <path id="Path_2401" data-name="Path 2401" d="M0,0,18.433,6.316,39.36,0V4.224L19.315,11.378,0,4.224Z" transform="translate(460.66 531.053)" fill="#ffc000"/>
      <path id="Path_2402" data-name="Path 2402" d="M0,0,18.433,6.316,39.36,0V4.224L19.315,11.378,0,4.224Z" transform="translate(460.66 535.699)" fill="#ed1c24"/>
      <path id="np_sandwich_99280_000000" d="M46.448,22.407a108.066,108.066,0,0,0-16.479-6.788A14.069,14.069,0,0,0,25.682,15a13.38,13.38,0,0,0-4.93.853,2.444,2.444,0,0,0-1.735,1.86,1.652,1.652,0,0,1-.277.14L6.754,22.788C5.228,23.418,5,24.384,5,24.9V39.39c0,.521.228,1.488,1.754,2.116L23.24,48.295a8.5,8.5,0,0,0,5.775,0L41,43.358a4.068,4.068,0,0,1,.858-.232,6.608,6.608,0,0,1,1.111-.091,9.064,9.064,0,0,0,1.518-.124,6.494,6.494,0,0,0,1.371-.381c1.933-.8,2.467-1.871,2.576-2.633l.011-5a1.113,1.113,0,0,0-.011-.111l.011-4.717a1.113,1.113,0,0,0-.011-.111l.011-4.655c0-.04.008-.077.009-.113.028-.634-.194-1.839-2.007-2.784ZM35.02,24.465a4.283,4.283,0,0,1,2.846,0c.787.324.787.849,0,1.171a4.283,4.283,0,0,1-2.846,0C34.234,25.313,34.234,24.789,35.02,24.465Zm-5.692-4.1a2.139,2.139,0,0,1,1.422,0c.392.162.392.424,0,.587a2.139,2.139,0,0,1-1.422,0C28.936,20.789,28.936,20.526,29.328,20.364Zm-1.422,8.787a2.139,2.139,0,0,1,1.422,0c.392.162.392.424,0,.587a2.139,2.139,0,0,1-1.422,0C27.511,29.576,27.511,29.314,27.906,29.152Zm-3.557-4.393c.392.162.392.424,0,.587a2.139,2.139,0,0,1-1.422,0c-.392-.162-.392-.424,0-.587A2.139,2.139,0,0,1,24.348,24.759ZM20.08,21.243a4.283,4.283,0,0,1,2.846,0c.787.324.787.849,0,1.171a4.283,4.283,0,0,1-2.846,0C19.294,22.092,19.294,21.567,20.08,21.243ZM15.1,25.638a2.139,2.139,0,0,1,1.422,0c.392.162.392.424,0,.587a2.139,2.139,0,0,1-1.422,0C14.707,26.06,14.707,25.8,15.1,25.638ZM46.032,39.578a2.334,2.334,0,0,1-1.094.721,4.113,4.113,0,0,1-.856.232,6.614,6.614,0,0,1-1.113.091,9.064,9.064,0,0,0-1.518.124,6.461,6.461,0,0,0-1.371.381L28.095,46.061a6.441,6.441,0,0,1-3.938,0L7.673,39.275a1.8,1.8,0,0,1-.258-.128v-2.2l15.823,6.515a8.506,8.506,0,0,0,5.777,0L41,38.529a4.068,4.068,0,0,1,.858-.232,6.608,6.608,0,0,1,1.111-.091,9.065,9.065,0,0,0,1.518-.124,6.494,6.494,0,0,0,1.371-.381c.06-.025.115-.051.174-.077Zm0-4.829a2.334,2.334,0,0,1-1.094.721,4.112,4.112,0,0,1-.856.232,6.614,6.614,0,0,1-1.113.091,9.065,9.065,0,0,0-1.518.124,6.462,6.462,0,0,0-1.371.381L28.095,41.233a6.441,6.441,0,0,1-3.938,0L7.673,34.446a1.8,1.8,0,0,1-.258-.128v-2.2l15.823,6.515a8.506,8.506,0,0,0,5.777,0L41,33.7a4.068,4.068,0,0,1,.858-.232,6.608,6.608,0,0,1,1.111-.091,9.064,9.064,0,0,0,1.518-.124,6.493,6.493,0,0,0,1.371-.381c.06-.025.115-.051.174-.077Zm0-4.829a2.334,2.334,0,0,1-1.094.721,4.112,4.112,0,0,1-.856.232,6.614,6.614,0,0,1-1.113.091,9.064,9.064,0,0,0-1.518.124,6.462,6.462,0,0,0-1.371.381L28.095,36.4a6.441,6.441,0,0,1-3.938,0L7.673,29.617a1.8,1.8,0,0,1-.258-.128v-2.2l15.823,6.515a8.506,8.506,0,0,0,5.777,0L41,28.872a5.453,5.453,0,0,1,1.969-.324,7.79,7.79,0,0,0,2.888-.506c.06-.025.115-.051.174-.077Z" transform="translate(453.55 499.662)" fill="#db9f6b"/>
    </g>
  </g>
</svg>
