<svg xmlns="http://www.w3.org/2000/svg" width="912.185" height="385.86" viewBox="0 0 912.185 385.86">
  <g id="Group_5887" data-name="Group 5887" transform="translate(0 -1544.158)">
    <g id="Group_5857" data-name="Group 5857" transform="translate(0 1598.325)">
      <path id="Path_2463" data-name="Path 2463" d="M4706,675l221.512,48.019c46.339-16.006,142.656,74.162,142.656,74.162L5177.35,836.97l57.039-77.918,40.536,59.289,110.626,10.148,47.477,30.439,36.893,79.045h64.15l64.411,121.125H4706Z" transform="translate(-4705.997 -729.166)" fill="#61914a"/>
      <g id="Group_35" data-name="Group 35" transform="translate(0 -41.805)">
        <path id="Path_148" data-name="Path 148" d="M2663.62,3672.681l-26.281-123.649L2614.1,3672.681Z" transform="translate(-1991.669 -3386.461)" fill="#3b6b2c"/>
        <path id="Path_149" data-name="Path 149" d="M2632.832,3677.7l-23.663-100.2L2592.7,3677.7Z" transform="translate(-1935.062 -3374.62)" fill="#3b6b2c"/>
        <path id="Path_150" data-name="Path 150" d="M2999.049,3584.794l-19.176-81.2-13.344,81.2Z" transform="translate(-2824.729 -3474.356)" fill="#3b6b2c"/>
        <path id="Path_151" data-name="Path 151" d="M2597.06,3678.851l-22.727-106.928-20.1,106.928Z" transform="translate(-1852.875 -3376.33)" fill="#3b6b2c"/>
        <path id="Path_152" data-name="Path 152" d="M3055.313,3577.151l-18.777-79.509-13.06,79.509Z" transform="translate(-2949.708 -3475.586)" fill="#3b6b2c"/>
        <path id="Path_153" data-name="Path 153" d="M2609.688,3676.42l-19.469-82.431-13.534,82.431Z" transform="translate(-1892.591 -3369.283)" fill="#3b6b2c"/>
        <path id="Path_154" data-name="Path 154" d="M3042.986,3567.144l-19.178-81.2-13.344,81.2Z" transform="translate(-2921.679 -3478.002)" fill="#3b6b2c"/>
        <g id="Group_32" data-name="Group 32" transform="translate(433.5 170.506)">
          <path id="Path_155" data-name="Path 155" d="M2755.916,3659.849l-15.951-61.132-8.529,61.132Z" transform="translate(-2731.436 -3588.519)" fill="#3b6b2c"/>
          <path id="Path_156" data-name="Path 156" d="M2743.261,3652.084l-12.654-61.82-11.8,60.645Z" transform="translate(-2703.545 -3590.265)" fill="#3b6b2c"/>
        </g>
        <g id="Group_33" data-name="Group 33" transform="translate(759.042 281.059)">
          <path id="Path_157" data-name="Path 157" d="M2486.113,3727.991l-15.95-61.132-8.529,61.132Z" transform="translate(-2461.634 -3656.66)" fill="#3b6b2c"/>
          <path id="Path_158" data-name="Path 158" d="M2473.458,3720.226l-12.653-61.82-11.8,60.645Z" transform="translate(-2433.743 -3658.406)" fill="#3b6b2c"/>
        </g>
        <g id="Group_34" data-name="Group 34" transform="translate(265.664 82.916)">
          <path id="Path_159" data-name="Path 159" d="M2874.878,3625.651l-22.092-93.531-15.367,93.531Z" transform="translate(-2810.44 -3532.12)" fill="#3b6b2c"/>
          <path id="Path_160" data-name="Path 160" d="M2895.016,3612.8l-15.95-61.132-8.529,61.132Z" transform="translate(-2870.537 -3528.084)" fill="#3b6b2c"/>
          <path id="Path_161" data-name="Path 161" d="M2882.362,3613.318l-12.653-61.82-11.8,60.645Z" transform="translate(-2842.648 -3528.117)" fill="#3b6b2c"/>
        </g>
        <path id="Path_162" data-name="Path 162" d="M3082.691,3572.893l-22.091-93.53-15.367,93.53Z" transform="translate(-3003.336 -3479.363)" fill="#3b6b2c"/>
        <path id="Path_163" data-name="Path 163" d="M3102.83,3584.9l-15.951-61.133-8.529,61.133Z" transform="translate(-3063.434 -3456.103)" fill="#3b6b2c"/>
        <path id="Path_164" data-name="Path 164" d="M3090.175,3577.135l-12.653-61.82-11.8,60.645Z" transform="translate(-3035.542 -3471.935)" fill="#3b6b2c"/>
        <path id="Path_165" data-name="Path 165" d="M2898.6,3653.666l-14.436-61.136-10.043,61.136Z" transform="translate(-2612.791 -3420.083)" fill="#3b6b2c"/>
        <path id="Path_166" data-name="Path 166" d="M2931,3595.391l-14.15-61.129-10.331,61.129Z" transform="translate(-2684.274 -3450.607)" fill="#3b6b2c"/>
        <path id="Path_167" data-name="Path 167" d="M3025.417,3584.163l-19.928-86.106-14.551,86.106Z" transform="translate(-2880.55 -3475.501)" fill="#3b6b2c"/>
        <path id="Path_168" data-name="Path 168" d="M2355,3561.8l64.347-14.458,168.763,29.578,115.51,78.621,101.21,33.7,123.211-20.588q54.218,19.808,108.435,39.616,32.831,33.435,65.663,66.867l165.045,63.683H2355Z" transform="translate(-2355 -3465.319)" fill="#9bd025"/>
      </g>
    </g>
    <g id="Bench" transform="translate(58 1643.438)" style="isolation: isolate">
      <g id="Layer_2" data-name="Layer 2" transform="translate(0 0)">
        <g id="Layer_1" data-name="Layer 1">
          <path id="Path_3100" data-name="Path 3100" d="M50.843,166.727,225.4,66.052c2.661-1.539,2.661-4.056,0-5.58h0a10.7,10.7,0,0,0-9.665,0L41.178,161.247c-2.661,1.539-2.661,4.056,0,5.58h0a10.7,10.7,0,0,0,9.665-.1Z" transform="translate(-30.233 25.999)" fill="#ced6e9"/>
          <path id="Path_3101" data-name="Path 3101" d="M37.783,174.337,212.339,73.562c2.661-1.539,2.661-4.041,0-5.58h0a10.7,10.7,0,0,0-9.665,0L28.118,168.757c-2.661,1.539-2.661,4.056,0,5.58h0A10.7,10.7,0,0,0,37.783,174.337Z" transform="translate(1.61 29.29)" fill="#ced6e9"/>
          <path id="Path_3102" data-name="Path 3102" d="M24.723,181.877,199.279,81.1c2.661-1.539,2.661-4.041,0-5.58h0a10.7,10.7,0,0,0-9.665,0L15.058,176.3c-2.661,1.539-2.661,4.056,0,5.58h0A10.7,10.7,0,0,0,24.723,181.877Z" transform="translate(33.453 32.594)" fill="#ced6e9"/>
          <path id="Path_3103" data-name="Path 3103" d="M11.652,189.432,186.208,88.642c2.661-1.539,2.661-4.041,0-5.58h0a10.7,10.7,0,0,0-9.665,0L1.987,183.851c-2.646,1.525-2.646,4.041,0,5.58h0a10.786,10.786,0,0,0,9.665,0Z" transform="translate(65.307 35.898)" fill="#ced6e9"/>
          <path id="Path_3104" data-name="Path 3104" d="M50.843,166.727,225.4,66.052c2.661-1.539,2.661-4.056,0-5.58h0a10.7,10.7,0,0,0-9.665,0L41.178,161.247c-2.661,1.539-2.661,4.056,0,5.58h0a10.7,10.7,0,0,0,9.665-.1Z" transform="translate(-30.233 25.999)" fill="#ced6e9"/>
          <path id="Path_3105" data-name="Path 3105" d="M37.783,174.337,212.339,73.562c2.661-1.539,2.661-4.041,0-5.58h0a10.7,10.7,0,0,0-9.665,0L28.118,168.757c-2.661,1.539-2.661,4.056,0,5.58h0A10.7,10.7,0,0,0,37.783,174.337Z" transform="translate(1.61 29.29)" fill="#ced6e9"/>
          <path id="Path_3106" data-name="Path 3106" d="M24.723,181.877,199.279,81.1c2.661-1.539,2.661-4.041,0-5.58h0a10.7,10.7,0,0,0-9.665,0L15.058,176.3c-2.661,1.539-2.661,4.056,0,5.58h0A10.7,10.7,0,0,0,24.723,181.877Z" transform="translate(33.453 32.594)" fill="#ced6e9"/>
          <path id="Path_3107" data-name="Path 3107" d="M53.012,116.646,227.568,15.871c2.661-1.539,4.832-.288,4.832,2.79h0a10.729,10.729,0,0,1-4.832,8.37L53.012,127.807c-2.661,1.539-4.832.273-4.832-2.79h0a10.729,10.729,0,0,1,4.832-8.37Z" transform="translate(-48.18 6.671)" fill="#ced6e9"/>
          <path id="Path_3108" data-name="Path 3108" d="M53.012,131.725,227.568,30.95c2.661-1.539,4.832-.273,4.832,2.79a10.729,10.729,0,0,1-4.832,8.37L53.012,142.886c-2.661,1.539-4.832.288-4.832-2.79a10.729,10.729,0,0,1,4.832-8.37Z" transform="translate(-48.18 13.28)" fill="#ced6e9"/>
          <path id="Path_3109" data-name="Path 3109" d="M53.012,146.805,227.568,46.03c2.661-1.539,4.832-.273,4.832,2.79h0a10.7,10.7,0,0,1-4.832,8.37L53.012,157.966c-2.661,1.539-4.832.288-4.832-2.79a10.729,10.729,0,0,1,4.832-8.37Z" transform="translate(-48.18 19.888)" fill="#ced6e9"/>
          <path id="Path_3110" data-name="Path 3110" d="M108.53,185.2h0a3.25,3.25,0,0,0,3.25-3.25V146.09l-6.5-2.79v38.645A3.25,3.25,0,0,0,108.53,185.2Z" transform="translate(-9.682 62.801)" fill="#ced6e9"/>
          <path id="Path_3111" data-name="Path 3111" d="M12.85,127.585h0a3.25,3.25,0,0,0,3.25-3.25V88.48L9.6,91.73v32.6A3.25,3.25,0,0,0,12.85,127.585Z" transform="translate(223.606 38.778)" fill="#ced6e9"/>
          <path id="Path_3112" data-name="Path 3112" d="M163.261,128.08v25.3a3.25,3.25,0,0,1-6.5,0V131.546Z" transform="translate(-135.201 56.131)" fill="#ced6e9"/>
          <g id="Group_5858" data-name="Group 5858" transform="translate(129.338 196.911)" opacity="0.18">
            <ellipse id="Ellipse_235" data-name="Ellipse 235" cx="38.185" cy="22.048" rx="38.185" ry="22.048" transform="translate(0)" fill="#647ddd"/>
          </g>
          <path id="Path_3113" data-name="Path 3113" d="M85.8,91.49A5.911,5.911,0,0,0,89.277,80.8L64.007,62.424a5.911,5.911,0,1,0-6.947,9.565L82.316,90.354A5.925,5.925,0,0,0,85.8,91.49Z" transform="translate(83.251 26.865)" fill="#f9ce9b"/>
          <path id="Path_3114" data-name="Path 3114" d="M83.685,87.46a6.716,6.716,0,0,0,1.194-.115,6.875,6.875,0,0,0,5.609-7.968L83.5,39.439a6.891,6.891,0,1,0-13.577,2.373l6.99,39.939a6.889,6.889,0,0,0,6.774,5.71Z" transform="translate(62.509 14.787)" fill="#f9ce9b"/>
          <path id="Path_3115" data-name="Path 3115" d="M40.728,139.416a3.969,3.969,0,0,0-3.466,2.6,11.692,11.692,0,0,0-.618,4.53,5.149,5.149,0,0,0,1.021,3.783,5.191,5.191,0,0,0,2.33,1.079,28.448,28.448,0,0,0,4.775.992c1.841.158,3.7,0,5.523.216,1.165.187,2.287.547,3.437.82a19.546,19.546,0,0,0,9.852-.245,3.811,3.811,0,0,0,1.927-1.064,2.876,2.876,0,0,0-.273-3.394,8.1,8.1,0,0,0-3.049-2l-10.067-4.631c-3.294-1.51-6.7-3.063-10.326-3.135-1.165,0-2.689.489-2.589,1.654Z" transform="translate(134.936 60.903)" fill="gray"/>
          <rect id="Rectangle_1651" data-name="Rectangle 1651" width="8.414" height="14.914" rx="2.81" transform="translate(175.103 190.771) rotate(4.65)" fill="#ced6e9"/>
          <path id="Path_3116" data-name="Path 3116" d="M65.2,153.482c.59,1.309,1.194,2.6,1.769,3.9a34.591,34.591,0,0,1,1.582,4.07c.633,2.085,1.812,6.156.331,8.054-2.229,2.876-5.868.4-7.68-1.611a85.44,85.44,0,0,1-7.493-9.722,12.814,12.814,0,0,1-2.244-4.947c-.935-5.753,1.827-13.879,7.608-11.966,2.114.69,3.02,2.488,3.509,4.832a37.293,37.293,0,0,0,2.618,7.392Z" transform="translate(110.165 61.78)" fill="gray"/>
          <rect id="Rectangle_1652" data-name="Rectangle 1652" width="8.414" height="14.914" rx="2.81" transform="translate(163.309 197.126)" fill="#ced6e9"/>
          <path id="Path_3117" data-name="Path 3117" d="M77.082,77.379,90.443,73.64l3.509,7.033L134.6,100.621a7.968,7.968,0,0,1,4.847,8.629l-.662,3.941h0L131.4,163.672a4.947,4.947,0,0,1-4.53,4.228l-2.459.173a4.933,4.933,0,0,1-5.307-5.163l2.085-43.52-.3.115L84.935,100.664l-.158.618.992.834-1.093-.431v.216c7.809,5.508,17.719,13.62,26.334,20.466a9.1,9.1,0,0,1,3.135,5,13.289,13.289,0,0,1,.532,3.02l5.062,40.615a5.091,5.091,0,0,1-5.062,4.66h-3.509a5.077,5.077,0,0,1-5.077-5.149l-8.155-32.36L48.318,110.415a13.26,13.26,0,0,1-6.271-10.37L41.4,82.514Z" transform="translate(54.428 32.275)" fill="#29abe2"/>
          <path id="Path_3118" data-name="Path 3118" d="M79.023,115.942c3.308,3.02,9.392,3.02,15.748,1.783a60.519,60.519,0,0,0,18.021-6.774h0c.92-.575,11.721-5.537,16.281-8.3a2.876,2.876,0,0,0,1.151-3.61c-5.609-13.332-9.305-29.713-4.746-43.218a63.021,63.021,0,0,0,2.143-7.738v-.23c1.438-7.479.36-14.382-8.068-19.315A12.527,12.527,0,0,0,113.3,27.2a19.516,19.516,0,0,0-3.48.245c-15.979,2.934-24.608,8.1-29.368,16.036-3.25,5.321-4.861,11.88-6.012,19.819C72.738,75.14,73.011,110.419,79.023,115.942Z" transform="translate(17.294 11.92)" fill="#e2e8f2"/>
          <path id="Path_3119" data-name="Path 3119" d="M75.578,46.359l-.158.374V41.57Z" transform="translate(69.465 18.221)" fill="#e2e8f2"/>
          <path id="Path_3120" data-name="Path 3120" d="M82.773,36.882,91.4,46.618a2.33,2.33,0,0,0,3.639-.2l5.048-7,7.191,1.294a1.438,1.438,0,0,0,1.711-1.438V37.026A10.571,10.571,0,0,0,100.636,26.7a24.953,24.953,0,0,0-5.062-.518,21.242,21.242,0,0,0-12.167,3.524,4.861,4.861,0,0,0-.633,7.177Z" transform="translate(27.336 11.476)" fill="#e2e8f2"/>
          <path id="Path_3121" data-name="Path 3121" d="M103.839,110.977c3.308,3.02,9.392,3.02,15.748,1.783a17.69,17.69,0,0,0-1.9-6.472c-5.321-8.629-6.012-11.132-4.933-21.386.417-4.056.834-8.212-.244-12.153s-3.394-7.335-2.675-11.146a23.387,23.387,0,0,1,1.942-4.847,18.6,18.6,0,0,0,1.208-10.815,10.068,10.068,0,0,0-2.574-5.422,7.378,7.378,0,0,0-5.149-2c-3.25,5.321-4.861,11.88-6.012,19.819C97.554,70.175,97.827,105.455,103.839,110.977Z" transform="translate(-7.522 16.885)" fill="#e2e8f2"/>
          <path id="Path_3122" data-name="Path 3122" d="M85.14,31.607a4.315,4.315,0,0,0,1.438,3.063,9.593,9.593,0,0,0,12.21.1,4.215,4.215,0,0,0,0-6.343l-.273-.245h0A8.529,8.529,0,0,0,94.33,26.43a6.745,6.745,0,0,0-.777-.086,7.193,7.193,0,0,0-.791,0,8.73,8.73,0,0,0-6.156,2.244A4.315,4.315,0,0,0,85.14,31.607Z" transform="translate(30.837 11.544)" fill="gray"/>
          <path id="Path_3123" data-name="Path 3123" d="M86.18,18.76V37.931a9.593,9.593,0,0,0,12.21.1V18.76Z" transform="translate(31.178 8.226)" fill="#f9ce9b"/>
          <g id="Group_5859" data-name="Group 5859" transform="translate(117.991 29.647)" opacity="0.71" style="mix-blend-mode: multiply;isolation: isolate">
            <path id="Path_3124" data-name="Path 3124" d="M97.283,36.589,93.3,30.836l-.733-1.05L87.23,22.178,86.18,20.61h.92l4.775.259a72.859,72.859,0,0,1,5.882,6.256Z" transform="translate(-86.18 -20.61)" fill="#f9ce9b"/>
          </g>
          <path id="Path_3125" data-name="Path 3125" d="M77.271,22.371c0,.7.877,1.294,1.769,1.855.288.2.575.388.849.618h0a2.359,2.359,0,0,1,.561.489,1.294,1.294,0,0,1,.417.7,14.166,14.166,0,0,0,.863,2.675,14.483,14.483,0,0,0,5.537,6.515,14.871,14.871,0,0,0,1.64.863,11.765,11.765,0,0,0,3.552.978,9.248,9.248,0,0,0,1.438,0,11.865,11.865,0,0,0,11.031-9.794,22.019,22.019,0,0,0,.417-3.653V19.437c-.1-2.172-.173-4.315-.244-6.515A22.756,22.756,0,0,0,105,10.3a2.79,2.79,0,0,0,0-1.194,4.013,4.013,0,0,0-2.143-2.546,9.075,9.075,0,0,0-5.091-.518A26.521,26.521,0,0,0,87.554,8.923a14.224,14.224,0,0,0-6.7,7.982C80.349,18.5,77.2,20.731,77.271,22.371Z" transform="translate(37.038 2.587)" fill="#f9ce9b"/>
          <path id="Path_3126" data-name="Path 3126" d="M74.576,13.19a13.706,13.706,0,0,1,3.25-8.14A14.382,14.382,0,0,1,84.542.85,15.015,15.015,0,0,1,89.921,0c2.56.173,4.919,1.438,7.392,2.085s5.235.863,7.723,1.769,4.847,2.876,5.106,5.508-1.812,5.192-4.315,6.271a19.416,19.416,0,0,1-8.04,1.021c-1.841,0-5.753-.805-7.378,0-2.546,1.323-1.6,5.178-2.876,7.191a1.942,1.942,0,0,1-1.769,1.007c-1.668-.115-2.258-2.474-3.826-3.035a2.387,2.387,0,0,0-2.876,1.366,3.337,3.337,0,0,0,.518,3.293c.762.978,2.229,1.093,2.876,1.87s.345,1.769.115,2.8a2.776,2.776,0,0,1-1.654,2.1C74.446,35.64,74.346,16.3,74.576,13.19Z" transform="translate(36.181 0.003)" fill="#997555"/>
          <path id="Path_3127" data-name="Path 3127" d="M45.676,102.323l35.955-19.6L115.4,102.855,76.368,125.162l-31.526-18.8a1.539,1.539,0,0,1-.762-1.338h0a3.107,3.107,0,0,1,1.6-2.7Z" transform="translate(74.716 36.254)" fill="#c4dffc"/>
          <path id="Path_3128" data-name="Path 3128" d="M75.829,123.788,114.848,101.5,82.733,82.266a3.279,3.279,0,0,0-3.308,0L43.57,102.747a1.007,1.007,0,0,0,0,1.74Z" transform="translate(76.722 35.859)" fill="#edf4f9"/>
          <path id="Path_3129" data-name="Path 3129" d="M80.891,88.22,49.48,105.177l12.9,8.658,30.4-17.46Z" transform="translate(89.566 38.664)" fill="#ced6e9"/>
          <path id="Path_3130" data-name="Path 3130" d="M66.25,95.419,81.265,86.2l7.766,4.5-15.288,9.535Z" transform="translate(69.201 37.779)" fill="#ced6e9"/>
          <path id="Path_3131" data-name="Path 3131" d="M40.25,127.118,44.881,92.5a2.776,2.776,0,0,1,1.338-1.97L64.685,80,82.03,69.819A2.229,2.229,0,0,1,83.4,69.5h0a31.056,31.056,0,0,1,3.423,1.74l-1.956,1.021-4.516,33.079a2.776,2.776,0,0,1-1.338,1.97l-34.4,21.875C43.055,130.138,40.437,128.024,40.25,127.118Z" transform="translate(108.806 30.458)" fill="#c4dffc"/>
          <path id="Path_3132" data-name="Path 3132" d="M81.574,70.761,64.229,80.943,45.763,91.413A2.876,2.876,0,0,0,44.411,93.4l-4.6,33.654a1.87,1.87,0,0,0,2.991,1.8L78.525,108.2a2.876,2.876,0,0,0,1.438-1.97l4.6-33.669a1.87,1.87,0,0,0-2.991-1.8Z" transform="translate(111.707 30.84)" fill="#3772ce"/>
          <path id="Path_3133" data-name="Path 3133" d="M80,46.807V85.164a16.065,16.065,0,0,0,6.529,12.944l27.211,19.919a7.053,7.053,0,1,0,8.342-11.376l-27.2-19.934a1.927,1.927,0,0,1-.777-1.553V46.807a7.047,7.047,0,0,0-14.094,0Z" transform="translate(13.503 17.428)" fill="#f9ce9b"/>
          <path id="Path_3134" data-name="Path 3134" d="M109.989,89.231a7.9,7.9,0,0,1-8.629-4.315V48.357c0-5.436,3.524-9.837,7.881-9.837s7.881,4.4,7.881,9.837V86.3a18.97,18.97,0,0,1-7.134,2.934Z" transform="translate(-9.386 16.885)" fill="#e2e8f2"/>
          <path id="Path_3135" data-name="Path 3135" d="M82.191,103.666h0a2.244,2.244,0,0,1-2.3-2.244V92.074a2.244,2.244,0,0,1,2.244-2.244h0a2.244,2.244,0,0,1,2.229,2.244v9.348a2.244,2.244,0,0,1-2.172,2.244Z" transform="translate(54.252 39.37)" fill="#f9ce9b"/>
          <path id="Path_3136" data-name="Path 3136" d="M69.062,84.168a8.744,8.744,0,1,1-8.73-9.248A9,9,0,0,1,69.062,84.168Z" transform="translate(110.255 32.836)" fill="#f9ce9b"/>
          <path id="Path_3137" data-name="Path 3137" d="M40.24,127.132l4.617-34.618a2.776,2.776,0,0,1,1.338-1.985L64.661,80,82.006,69.819a2.229,2.229,0,0,1,1.366-.316h0a31.412,31.412,0,0,1,3.437,1.74l-1.97,1.021-4.516,33.079a2.776,2.776,0,0,1-1.338,1.97L44.468,129.275C43.03,130.138,40.413,128.024,40.24,127.132Z" transform="translate(108.831 30.458)" fill="#c4dffc"/>
          <path id="Path_3138" data-name="Path 3138" d="M81.574,70.761,64.229,80.943,45.763,91.485a2.79,2.79,0,0,0-1.352,1.97l-4.6,33.654a1.87,1.87,0,0,0,2.991,1.8L78.525,108.2a2.876,2.876,0,0,0,1.438-1.97l4.6-33.669a1.87,1.87,0,0,0-2.991-1.8Z" transform="translate(111.707 30.84)" fill="#ff963c"/>
          <path id="Path_3139" data-name="Path 3139" d="M71.023,41.4l5.9,31.9a6.932,6.932,0,0,0,6.256,3.8,8.329,8.329,0,0,0,1.179-.1h.23a6.558,6.558,0,0,0,5.408-7.551L84.111,37.516a7.033,7.033,0,0,0-7.493-3.682A6.573,6.573,0,0,0,71.023,41.4Z" transform="translate(61.408 14.782)" fill="#e2e8f2"/>
          <path id="Path_3140" data-name="Path 3140" d="M83.494,78.351a7.422,7.422,0,0,0,1.338-.115H85.1a7.565,7.565,0,0,0,6.141-8.629L85.334,37.549v-.129a8.054,8.054,0,0,0-8.5-4.214,7.853,7.853,0,0,0-5.221,3.164,7.191,7.191,0,0,0-1.208,5.48l5.882,32.043v.115A7.91,7.91,0,0,0,83.494,78.351Zm0-40.27,5.868,31.784a5.523,5.523,0,0,1-4.6,6.357H84.6a7.7,7.7,0,0,1-1.064.086,5.969,5.969,0,0,1-5.365-3.078l-5.854-31.77a5.235,5.235,0,0,1,.877-4,5.94,5.94,0,0,1,3.9-2.416A6.084,6.084,0,0,1,83.45,38.11Z" transform="translate(61.09 14.505)" fill="#e2e8f2"/>
        </g>
      </g>
    </g>
  </g>
</svg>
