<svg xmlns="http://www.w3.org/2000/svg" width="1441.604" height="278.441" viewBox="0 0 1441.604 278.441">
  <g id="Group_5864" data-name="Group 5864" transform="translate(-0.396 -2317.578)">
    <path id="Path_2463" data-name="Path 2463" d="M5298,675l-146.933,27.36c-30.738-9.12-94.626,42.256-94.626,42.256l-71.1,22.671s-29.286-10.229-61.915-22.671-68.6-27.095-68.6-27.095l-87.8,64.7L4706,893.85H4452.99l-26.712-37.091-97.117-89.472-54.724-22.671-52.253,37.6-50.4-26.25s-41.2,24.641-57.96,26.25c-27.513,2.641-45.459-65.986-51.528-64.7-7.544,6.706-59.427-15.161-59.427-15.161L3955.625,675l-43.5-58.422S3858.792,672.87,3856.4,675V893.85H5298Z" transform="translate(-3856 1701)" fill="#61914a"/>
    <g id="Group_35" data-name="Group 35" transform="translate(-1518.069 -1087.96)">
      <path id="Path_148" data-name="Path 148" d="M2614.1,3631.05l17.433-82.019,15.415,82.019Z" transform="translate(-99.749 10.102)" fill="#3b6b2c"/>
      <path id="Path_149" data-name="Path 149" d="M2592.7,3643.963l15.7-66.466,10.923,66.466Z" transform="translate(-95.477 4.419)" fill="#3b6b2c"/>
      <path id="Path_150" data-name="Path 150" d="M2966.528,3557.456l12.72-53.861,8.851,53.861Z" transform="translate(-122.088 -4.838)" fill="#3b6b2c"/>
      <path id="Path_151" data-name="Path 151" d="M2554.235,3642.85l15.075-70.927,13.332,70.927Z" transform="translate(-87.797 5.532)" fill="#3b6b2c"/>
      <path id="Path_152" data-name="Path 152" d="M3023.477,3550.381l12.455-52.74,8.663,52.74Z" transform="translate(-133.457 -3.65)" fill="#3b6b2c"/>
      <path id="Path_153" data-name="Path 153" d="M2576.685,3648.667l12.914-54.678,8.978,54.678Z" transform="translate(-92.279 1.126)" fill="#3b6b2c"/>
      <path id="Path_154" data-name="Path 154" d="M3010.464,3539.806l12.721-53.859,8.851,53.859Z" transform="translate(-130.86 -1.315)" fill="#3b6b2c"/>
      <g id="Group_32" data-name="Group 32" transform="translate(2646.176 3568.124)">
        <path id="Path_155" data-name="Path 155" d="M2731.436,3639.267l10.58-40.55,5.657,40.55Z" transform="translate(-2721.33 -3591.952)" fill="#3b6b2c"/>
        <path id="Path_156" data-name="Path 156" d="M2718.809,3631.271l8.393-41.006,7.827,40.227Z" transform="translate(-2718.809 -3590.264)" fill="#3b6b2c"/>
      </g>
      <g id="Group_33" data-name="Group 33" transform="translate(2430.238 3622.661)">
        <path id="Path_157" data-name="Path 157" d="M2461.634,3707.408l10.58-40.55,5.657,40.55Z" transform="translate(-2451.527 -3660.093)" fill="#3b6b2c"/>
        <path id="Path_158" data-name="Path 158" d="M2449.006,3699.412l8.393-41.007,7.827,40.227Z" transform="translate(-2449.006 -3658.406)" fill="#3b6b2c"/>
      </g>
      <g id="Group_34" data-name="Group 34" transform="translate(2741.107 3521.587)">
        <path id="Path_159" data-name="Path 159" d="M2837.419,3594.161l14.654-62.041,10.193,62.041Z" transform="translate(-2837.419 -3532.12)" fill="#3b6b2c"/>
        <path id="Path_160" data-name="Path 160" d="M2870.537,3592.213l10.58-40.55,5.657,40.55Z" transform="translate(-2844.031 -3536.022)" fill="#3b6b2c"/>
        <path id="Path_161" data-name="Path 161" d="M2857.909,3592.5l8.393-41.006,7.827,40.227Z" transform="translate(-2841.51 -3535.989)" fill="#3b6b2c"/>
      </g>
      <path id="Path_162" data-name="Path 162" d="M3045.233,3541.4l14.654-62.041,10.193,62.041Z" transform="translate(-137.801 0)" fill="#3b6b2c"/>
      <path id="Path_163" data-name="Path 163" d="M3078.35,3564.318l10.581-40.551,5.657,40.551Z" transform="translate(-144.413 -8.865)" fill="#3b6b2c"/>
      <path id="Path_164" data-name="Path 164" d="M3065.723,3556.322l8.393-41.006,7.827,40.227Z" transform="translate(-141.892 -7.178)" fill="#3b6b2c"/>
      <path id="Path_165" data-name="Path 165" d="M2874.125,3633.083l9.575-40.552,6.662,40.552Z" transform="translate(-103.64 -22.593)" fill="#3b6b2c"/>
      <path id="Path_166" data-name="Path 166" d="M2906.519,3574.809l9.386-40.548,6.853,40.548Z" transform="translate(-110.107 -10.96)" fill="#3b6b2c"/>
      <path id="Path_167" data-name="Path 167" d="M2990.938,3555.173l13.219-57.116,9.652,57.116Z" transform="translate(-126.961 -3.732)" fill="#3b6b2c"/>
      <path id="Path_168" data-name="Path 168" d="M2960.069,3554.792l-42.683-7.45-111.943,15.243-76.62,40.516-67.135,17.366-81.729-10.61-71.927,20.416-43.555,34.459L2355,3697.551h605.069Z" transform="translate(0 -13.572)" fill="#9bd025"/>
    </g>
    <g id="Group_5798" data-name="Group 5798" transform="translate(1.931 2391.403)">
      <path id="Path_148-2" data-name="Path 148" d="M2646.948,3631.05l-17.433-82.019L2614.1,3631.05Z" transform="translate(-2201.23 -3469.261)" fill="#3b6b2c"/>
      <path id="Path_149-2" data-name="Path 149" d="M2619.322,3643.963l-15.7-66.466-10.923,66.466Z" transform="translate(-2156.478 -3474.944)" fill="#3b6b2c"/>
      <path id="Path_150-2" data-name="Path 150" d="M2988.1,3557.456l-12.72-53.861-8.851,53.861Z" transform="translate(-2872.47 -3484.2)" fill="#3b6b2c"/>
      <path id="Path_151-2" data-name="Path 151" d="M2582.641,3642.85l-15.075-70.927-13.332,70.927Z" transform="translate(-2089.009 -3473.831)" fill="#3b6b2c"/>
      <path id="Path_152-2" data-name="Path 152" d="M3044.595,3550.381l-12.455-52.74-8.663,52.74Z" transform="translate(-2974.545 -3483.012)" fill="#3b6b2c"/>
      <path id="Path_153-2" data-name="Path 153" d="M2598.576,3648.667l-12.914-54.678-8.978,54.678Z" transform="translate(-2122.912 -3478.236)" fill="#3b6b2c"/>
      <path id="Path_154-2" data-name="Path 154" d="M3032.037,3539.806l-12.721-53.859-8.851,53.859Z" transform="translate(-2951.572 -3480.677)" fill="#3b6b2c"/>
      <g id="Group_32-2" data-name="Group 32" transform="translate(287.549 88.761)">
        <path id="Path_155-2" data-name="Path 155" d="M2747.674,3639.267l-10.58-40.55-5.657,40.55Z" transform="translate(-2731.437 -3591.952)" fill="#3b6b2c"/>
        <path id="Path_156-2" data-name="Path 156" d="M2735.028,3631.271l-8.393-41.006-7.827,40.227Z" transform="translate(-2708.684 -3590.264)" fill="#3b6b2c"/>
      </g>
      <g id="Group_33-2" data-name="Group 33" transform="translate(503.487 143.298)">
        <path id="Path_157-2" data-name="Path 157" d="M2477.871,3707.408l-10.58-40.55-5.657,40.55Z" transform="translate(-2461.634 -3660.093)" fill="#3b6b2c"/>
        <path id="Path_158-2" data-name="Path 158" d="M2465.226,3699.412l-8.393-41.007-7.827,40.227Z" transform="translate(-2438.882 -3658.406)" fill="#3b6b2c"/>
      </g>
      <g id="Group_34-2" data-name="Group 34" transform="translate(176.219 42.225)">
        <path id="Path_159-2" data-name="Path 159" d="M2862.266,3594.161l-14.654-62.041-10.193,62.041Z" transform="translate(-2819.523 -3532.12)" fill="#3b6b2c"/>
        <path id="Path_160-2" data-name="Path 160" d="M2886.774,3592.213l-10.58-40.55-5.657,40.55Z" transform="translate(-2870.537 -3536.022)" fill="#3b6b2c"/>
        <path id="Path_161-2" data-name="Path 161" d="M2874.129,3592.5l-8.393-41.006-7.827,40.227Z" transform="translate(-2847.786 -3535.989)" fill="#3b6b2c"/>
      </g>
      <path id="Path_162-2" data-name="Path 162" d="M3070.08,3541.4l-14.654-62.041-10.193,62.041Z" transform="translate(-3017.442 -3479.363)" fill="#3b6b2c"/>
      <path id="Path_163-2" data-name="Path 163" d="M3094.588,3564.318l-10.581-40.551-5.657,40.551Z" transform="translate(-3068.456 -3488.228)" fill="#3b6b2c"/>
      <path id="Path_164-2" data-name="Path 164" d="M3081.942,3556.322l-8.393-41.006-7.827,40.227Z" transform="translate(-3045.704 -3486.54)" fill="#3b6b2c"/>
      <path id="Path_165-2" data-name="Path 165" d="M2890.362,3633.083l-9.575-40.552-6.662,40.552Z" transform="translate(-2700.778 -3501.956)" fill="#3b6b2c"/>
      <path id="Path_166-2" data-name="Path 166" d="M2922.757,3574.809l-9.386-40.548-6.853,40.548Z" transform="translate(-2759.1 -3490.323)" fill="#3b6b2c"/>
      <path id="Path_167-2" data-name="Path 167" d="M3013.808,3555.173l-13.219-57.116-9.652,57.116Z" transform="translate(-2917.716 -3483.095)" fill="#3b6b2c"/>
      <path id="Path_168-2" data-name="Path 168" d="M2355,3554.792l42.683-7.45,111.943,15.243,76.62,40.516,67.135,17.366,81.729-10.61,71.927,20.416,43.555,34.459,109.478,32.818H2355Z" transform="translate(-2355 -3492.934)" fill="#9bd025"/>
    </g>
  </g>
</svg>
