<svg xmlns="http://www.w3.org/2000/svg" width="912.185" height="385.86" viewBox="0 0 912.185 385.86">
  <g id="Group_5857" data-name="Group 5857" transform="translate(0 54.166)">
    <path id="Path_2463" data-name="Path 2463" d="M4706,675l221.512,48.019c46.339-16.006,142.656,74.162,142.656,74.162L5177.35,836.97l57.039-77.918,40.536,59.289,110.626,10.148,47.477,30.439,36.893,79.045h64.15l64.411,121.125H4706Z" transform="translate(-4705.997 -729.166)" fill="#61914a"/>
    <g id="Group_35" data-name="Group 35" transform="translate(0 -41.805)">
      <path id="Path_148" data-name="Path 148" d="M2663.62,3672.681l-26.281-123.649L2614.1,3672.681Z" transform="translate(-1991.669 -3386.461)" fill="#3b6b2c"/>
      <path id="Path_149" data-name="Path 149" d="M2632.832,3677.7l-23.663-100.2L2592.7,3677.7Z" transform="translate(-1935.062 -3374.62)" fill="#3b6b2c"/>
      <path id="Path_150" data-name="Path 150" d="M2999.049,3584.794l-19.176-81.2-13.344,81.2Z" transform="translate(-2824.729 -3474.356)" fill="#3b6b2c"/>
      <path id="Path_151" data-name="Path 151" d="M2597.06,3678.851l-22.727-106.928-20.1,106.928Z" transform="translate(-1852.875 -3376.33)" fill="#3b6b2c"/>
      <path id="Path_152" data-name="Path 152" d="M3055.313,3577.151l-18.777-79.509-13.06,79.509Z" transform="translate(-2949.708 -3475.586)" fill="#3b6b2c"/>
      <path id="Path_153" data-name="Path 153" d="M2609.688,3676.42l-19.469-82.431-13.534,82.431Z" transform="translate(-1892.591 -3369.283)" fill="#3b6b2c"/>
      <path id="Path_154" data-name="Path 154" d="M3042.986,3567.144l-19.178-81.2-13.344,81.2Z" transform="translate(-2921.679 -3478.002)" fill="#3b6b2c"/>
      <g id="Group_32" data-name="Group 32" transform="translate(433.5 170.506)">
        <path id="Path_155" data-name="Path 155" d="M2755.916,3659.849l-15.951-61.132-8.529,61.132Z" transform="translate(-2731.436 -3588.519)" fill="#3b6b2c"/>
        <path id="Path_156" data-name="Path 156" d="M2743.261,3652.084l-12.654-61.82-11.8,60.645Z" transform="translate(-2703.545 -3590.265)" fill="#3b6b2c"/>
      </g>
      <g id="Group_33" data-name="Group 33" transform="translate(759.042 281.059)">
        <path id="Path_157" data-name="Path 157" d="M2486.113,3727.991l-15.95-61.132-8.529,61.132Z" transform="translate(-2461.634 -3656.66)" fill="#3b6b2c"/>
        <path id="Path_158" data-name="Path 158" d="M2473.458,3720.226l-12.653-61.82-11.8,60.645Z" transform="translate(-2433.743 -3658.406)" fill="#3b6b2c"/>
      </g>
      <g id="Group_34" data-name="Group 34" transform="translate(265.664 82.916)">
        <path id="Path_159" data-name="Path 159" d="M2874.878,3625.651l-22.092-93.531-15.367,93.531Z" transform="translate(-2810.44 -3532.12)" fill="#3b6b2c"/>
        <path id="Path_160" data-name="Path 160" d="M2895.016,3612.8l-15.95-61.132-8.529,61.132Z" transform="translate(-2870.537 -3528.084)" fill="#3b6b2c"/>
        <path id="Path_161" data-name="Path 161" d="M2882.362,3613.318l-12.653-61.82-11.8,60.645Z" transform="translate(-2842.648 -3528.117)" fill="#3b6b2c"/>
      </g>
      <path id="Path_162" data-name="Path 162" d="M3082.691,3572.893l-22.091-93.53-15.367,93.53Z" transform="translate(-3003.336 -3479.363)" fill="#3b6b2c"/>
      <path id="Path_163" data-name="Path 163" d="M3102.83,3584.9l-15.951-61.133-8.529,61.133Z" transform="translate(-3063.434 -3456.103)" fill="#3b6b2c"/>
      <path id="Path_164" data-name="Path 164" d="M3090.175,3577.135l-12.653-61.82-11.8,60.645Z" transform="translate(-3035.542 -3471.935)" fill="#3b6b2c"/>
      <path id="Path_165" data-name="Path 165" d="M2898.6,3653.666l-14.436-61.136-10.043,61.136Z" transform="translate(-2612.791 -3420.083)" fill="#3b6b2c"/>
      <path id="Path_166" data-name="Path 166" d="M2931,3595.391l-14.15-61.129-10.331,61.129Z" transform="translate(-2684.274 -3450.607)" fill="#3b6b2c"/>
      <path id="Path_167" data-name="Path 167" d="M3025.417,3584.163l-19.928-86.106-14.551,86.106Z" transform="translate(-2880.55 -3475.501)" fill="#3b6b2c"/>
      <path id="Path_168" data-name="Path 168" d="M2355,3561.8l64.347-14.458,168.763,29.578,115.51,78.621,101.21,33.7,123.211-20.588q54.218,19.808,108.435,39.616,32.831,33.435,65.663,66.867l165.045,63.683H2355Z" transform="translate(-2355 -3465.319)" fill="#9bd025"/>
    </g>
  </g>
</svg>
