<svg xmlns="http://www.w3.org/2000/svg" width="62.764" height="60.802" viewBox="0 0 62.764 60.802">
  <path id="np_building_1015705_FFFFFF" d="M63.293,64.3a1.471,1.471,0,0,0,1.471-1.471V59.889a1.471,1.471,0,0,0-1.471-1.471H60.841V24.585a1.471,1.471,0,0,0-1.471-1.471H47.111V4.971A1.471,1.471,0,0,0,45.64,3.5H21.123a1.471,1.471,0,0,0-1.471,1.471v8.336H7.394a1.471,1.471,0,0,0-1.471,1.471v43.64H3.471A1.471,1.471,0,0,0,2,59.889v2.942A1.471,1.471,0,0,0,3.471,64.3ZM17.691,54.5H11.807V48.611h5.884Zm0-9.807H11.807V38.8h5.884Zm0-9.807H11.807V29h5.884Zm0-9.807H11.807V19.191h5.884ZM31.421,54.5H25.536V48.611h5.884Zm0-9.807H25.536V38.8h5.884Zm0-9.807H25.536V29h5.884Zm0-9.807H25.536V19.191h5.884Zm0-9.807H25.536V9.384h5.884ZM41.227,54.5H35.343V48.611h5.884Zm0-9.807H35.343V38.8h5.884Zm0-9.807H35.343V29h5.884Zm0-9.807H35.343V19.191h5.884Zm0-9.807H35.343V9.384h5.884ZM54.957,54.5H49.073V48.611h5.884Zm0-9.807H49.073V38.8h5.884Zm0-9.807H49.073V29h5.884Z" transform="translate(-2 -3.5)" fill="#ffc000"/>
</svg>
