<svg xmlns="http://www.w3.org/2000/svg" width="1317.156" height="643.313" viewBox="0 0 1317.156 643.313">
  <g id="Group_5826" data-name="Group 5826" transform="translate(-31.695 -122.839)">
    <path id="Path_2153" data-name="Path 2153" d="M12.43,7.914l-.543,3.051-.035.008-3.258.605,3.293.609.6,3.356.6-3.356.027,0,3.266-.605-3.293-.613L12.52,7.82l-.035-.211Z" transform="translate(260.008 664.168)" fill="#fff" opacity="0.313"/>
    <path id="Path_2503" data-name="Path 2503" d="M12.43,7.914l-.543,3.051-.035.008-3.258.605,3.293.609.6,3.356.6-3.356.027,0,3.266-.605-3.293-.613L12.52,7.82l-.035-.211Z" transform="translate(1191.008 364.168)" fill="#fff" opacity="0.313"/>
    <path id="Path_2475" data-name="Path 2475" d="M12.43,7.914l-.543,3.051-.035.008-3.258.605,3.293.609.6,3.356.6-3.356.027,0,3.266-.605-3.293-.613L12.52,7.82l-.035-.211Z" transform="translate(109.008 264.168)" fill="#fff" opacity="0.313"/>
    <path id="Path_2154" data-name="Path 2154" d="M14.086,49.6l-.547,3.055-.031.008-3.258.605,3.289.609.6,3.355.6-3.355.027,0,3.266-.605-3.293-.613-.559-3.145-.039-.211Z" transform="translate(311.008 512.168)" fill="#fff"/>
    <path id="Path_2155" data-name="Path 2155" d="M11.4,26.535l-.91,5.1-.059.012L4.992,32.652l5.5,1.02,1,5.605,1-5.605.043-.008,5.453-1.012-5.5-1.02-.937-5.254-.062-.352Z" transform="translate(260.008 664.168)" fill="#fff" opacity="0.313"/>
    <path id="Path_2502" data-name="Path 2502" d="M11.4,26.535l-.91,5.1-.059.012L4.992,32.652l5.5,1.02,1,5.605,1-5.605.043-.008,5.453-1.012-5.5-1.02-.937-5.254-.062-.352Z" transform="translate(1191.008 364.168)" fill="#fff" opacity="0.313"/>
    <path id="Path_2478" data-name="Path 2478" d="M11.4,26.535l-.91,5.1-.059.012L4.992,32.652l5.5,1.02,1,5.605,1-5.605.043-.008,5.453-1.012-5.5-1.02-.937-5.254-.062-.352Z" transform="translate(109.008 264.168)" fill="#fff" opacity="0.313"/>
    <path id="Path_2156" data-name="Path 2156" d="M31.9,21.035l-.91,5.1-.059.012-5.437,1.008,5.5,1.02,1,5.605,1-5.605.043-.008,5.453-1.012-5.5-1.02-.937-5.254-.062-.352Z" transform="translate(162.008 653.168)" fill="#fff"/>
    <path id="Path_2476" data-name="Path 2476" d="M31.9,21.035l-.91,5.1-.059.012-5.437,1.008,5.5,1.02,1,5.605,1-5.605.043-.008,5.453-1.012-5.5-1.02-.937-5.254-.062-.352Z" transform="translate(11.008 253.168)" fill="#fff"/>
    <path id="Path_2157" data-name="Path 2157" d="M64.59,28.938l-.91,5.1-.059.012-5.437,1.012,5.5,1.02,1,5.6,1-5.6.043-.008,5.453-1.012-5.5-1.023-.937-5.25-.062-.352Z" transform="translate(837.008 368.168)" fill="#fff"/>
    <path id="Path_2158" data-name="Path 2158" d="M30.039,64.941l-.469,2.617-.027,0-2.793.52,2.82.523.516,2.879.512-2.879.023,0,2.8-.52L30.6,67.558l-.48-2.7-.031-.18Z" transform="translate(260.008 664.168)" fill="#fff"/>
    <path id="Path_2500" data-name="Path 2500" d="M30.039,64.941l-.469,2.617-.027,0-2.793.52,2.82.523.516,2.879.512-2.879.023,0,2.8-.52L30.6,67.558l-.48-2.7-.031-.18Z" transform="translate(1191.008 364.168)" fill="#fff"/>
    <path id="Path_2479" data-name="Path 2479" d="M30.039,64.941l-.469,2.617-.027,0-2.793.52,2.82.523.516,2.879.512-2.879.023,0,2.8-.52L30.6,67.558l-.48-2.7-.031-.18Z" transform="translate(57.008 304.168)" fill="#fff"/>
    <path id="Path_2159" data-name="Path 2159" d="M54.383,57.715l-.332,1.844-.02,0-1.965.363,1.984.371.363,2.023.359-2.023.016,0,1.973-.367-1.988-.367-.336-1.9-.023-.125Z" transform="translate(499.008 546.168)" fill="#fff"/>
    <path id="Path_2497" data-name="Path 2497" d="M54.383,57.715l-.332,1.844-.02,0-1.965.363,1.984.371.363,2.023.359-2.023.016,0,1.973-.367-1.988-.367-.336-1.9-.023-.125Z" transform="translate(1191.008 364.168)" fill="#fff"/>
    <path id="Path_2480" data-name="Path 2480" d="M54.383,57.715l-.332,1.844-.02,0-1.965.363,1.984.371.363,2.023.359-2.023.016,0,1.973-.367-1.988-.367-.336-1.9-.023-.125Z" transform="translate(57.008 304.168)" fill="#fff"/>
    <path id="Path_2174" data-name="Path 2174" d="M54.383,57.715l-.332,1.844-.02,0-1.965.363,1.984.371.363,2.023.359-2.023.016,0,1.973-.367-1.988-.367-.336-1.9-.023-.125Z" transform="translate(3.008 676.168)" fill="#fff"/>
    <path id="Path_2491" data-name="Path 2491" d="M54.383,57.715l-.332,1.844-.02,0-1.965.363,1.984.371.363,2.023.359-2.023.016,0,1.973-.367-1.988-.367-.336-1.9-.023-.125Z" transform="translate(477.008 160.168)" fill="#fff"/>
    <path id="Path_2494" data-name="Path 2494" d="M54.383,57.715l-.332,1.844-.02,0-1.965.363,1.984.371.363,2.023.359-2.023.016,0,1.973-.367-1.988-.367-.336-1.9-.023-.125Z" transform="translate(979.008 88.168)" fill="#fff"/>
    <path id="Path_2160" data-name="Path 2160" d="M78.629,27.305,78.3,29.149l-.023,0-1.961.363,1.984.371.359,2.023.363-2.023.016,0,1.969-.367-1.984-.367-.34-1.9-.023-.125Z" transform="translate(539.008 484.168)" fill="#fff"/>
    <path id="Path_2481" data-name="Path 2481" d="M78.629,27.305,78.3,29.149l-.023,0-1.961.363,1.984.371.359,2.023.363-2.023.016,0,1.969-.367-1.984-.367-.34-1.9-.023-.125Z" transform="translate(149.008 132.168)" fill="#fff"/>
    <path id="Path_2161" data-name="Path 2161" d="M77.324,83.141l-.625,3.5-.039.008-3.727.691,3.766.7.688,3.844.688-3.844.027-.008,3.742-.691-3.77-.7-.645-3.605-.043-.238Z" transform="translate(575.008 519.168)" fill="#fff"/>
    <path id="Path_2498" data-name="Path 2498" d="M77.324,83.141l-.625,3.5-.039.008-3.727.691,3.766.7.688,3.844.688-3.844.027-.008,3.742-.691-3.77-.7-.645-3.605-.043-.238Z" transform="translate(1267.008 337.168)" fill="#fff"/>
    <path id="Path_2484" data-name="Path 2484" d="M77.324,83.141l-.625,3.5-.039.008-3.727.691,3.766.7.688,3.844.688-3.844.027-.008,3.742-.691-3.77-.7-.645-3.605-.043-.238Z" transform="translate(185.008 237.168)" fill="#fff"/>
    <path id="Path_2162" data-name="Path 2162" d="M27.648,8.973l-.332,1.84-.02,0-1.965.367,1.984.367.363,2.023.359-2.023.02,0,1.969-.363-1.988-.371-.336-1.9-.023-.125Z" transform="translate(162.008 653.168)" fill="#fff"/>
    <path id="Path_2477" data-name="Path 2477" d="M27.648,8.973l-.332,1.84-.02,0-1.965.367,1.984.367.363,2.023.359-2.023.02,0,1.969-.363-1.988-.371-.336-1.9-.023-.125Z" transform="translate(11.008 253.168)" fill="#fff"/>
    <path id="Path_2163" data-name="Path 2163" d="M28.949,87.773l-.328,1.844-.023,0-1.961.363,1.984.371.359,2.023.363-2.023.016,0,1.969-.367-1.984-.367-.34-1.9-.023-.125Z" transform="translate(589.008 551.168)" fill="#fff" opacity="0.466"/>
    <path id="Path_2496" data-name="Path 2496" d="M28.949,87.773l-.328,1.844-.023,0-1.961.363,1.984.371.359,2.023.363-2.023.016,0,1.969-.367-1.984-.367-.34-1.9-.023-.125Z" transform="translate(1281.008 369.168)" fill="#fff" opacity="0.466"/>
    <path id="Path_2485" data-name="Path 2485" d="M28.949,87.773l-.328,1.844-.023,0-1.961.363,1.984.371.359,2.023.363-2.023.016,0,1.969-.367-1.984-.367-.34-1.9-.023-.125Z" transform="translate(445.008 223.168)" fill="#fff" opacity="0.466"/>
    <path id="Path_2164" data-name="Path 2164" d="M45.137,43.664l-1.715,9.613-.109.02-10.25,1.9,10.359,1.922,1.887,10.562,1.883-10.562.082-.016L57.55,55.2,47.191,53.277l-1.766-9.906-.117-.656Z" transform="translate(1227.008 213.168)" fill="#fff" opacity="0.254"/>
    <path id="Path_2165" data-name="Path 2165" d="M89.023,5.648,87.55,13.895l-.1.016L78.66,15.543,87.55,17.2l1.617,9.063L90.785,17.2l.07-.016,8.82-1.637-8.891-1.648-1.516-8.5-.1-.562Z" transform="translate(851.008 370.168)" fill="#fff"/>
    <path id="Path_2166" data-name="Path 2166" d="M14.051,79.211l-.91,5.1-.059.012L7.645,85.328l5.5,1.02,1,5.6,1-5.6.043-.008,5.453-1.012-5.5-1.02L14.2,79.055l-.062-.352Z" transform="translate(432.008 610.168)" fill="#fff"/>
    <path id="Path_2167" data-name="Path 2167" d="M71.059,58.406l-.91,5.1-.059.012-5.437,1.008,5.5,1.02,1,5.605,1-5.605.043-.008,5.453-1.012-5.5-1.02-.937-5.254-.062-.352Z" transform="translate(1248.008 139.168)" fill="#fff"/>
    <path id="Path_2173" data-name="Path 2173" d="M71.059,58.406l-.91,5.1-.059.012-5.437,1.008,5.5,1.02,1,5.605,1-5.605.043-.008,5.453-1.012-5.5-1.02-.937-5.254-.062-.352Z" transform="translate(3.008 676.168)" fill="#fff"/>
    <path id="Path_2490" data-name="Path 2490" d="M71.059,58.406l-.91,5.1-.059.012-5.437,1.008,5.5,1.02,1,5.605,1-5.605.043-.008,5.453-1.012-5.5-1.02-.937-5.254-.062-.352Z" transform="translate(477.008 160.168)" fill="#fff"/>
    <path id="Path_2493" data-name="Path 2493" d="M71.059,58.406l-.91,5.1-.059.012-5.437,1.008,5.5,1.02,1,5.605,1-5.605.043-.008,5.453-1.012-5.5-1.02-.937-5.254-.062-.352Z" transform="translate(979.008 88.168)" fill="#fff"/>
    <path id="Path_2168" data-name="Path 2168" d="M89.078,65.027l-.91,5.1-.059.008-5.437,1.012,5.5,1.02,1,5.6,1-5.6.043-.008,5.453-1.012-5.5-1.02-.937-5.258-.062-.348Z" transform="translate(1248.008 139.168)" fill="#fff"/>
    <path id="Path_2172" data-name="Path 2172" d="M89.078,65.027l-.91,5.1-.059.008-5.437,1.012,5.5,1.02,1,5.6,1-5.6.043-.008,5.453-1.012-5.5-1.02-.937-5.258-.062-.348Z" transform="translate(3.008 676.168)" fill="#fff"/>
    <path id="Path_2488" data-name="Path 2488" d="M89.078,65.027l-.91,5.1-.059.008-5.437,1.012,5.5,1.02,1,5.6,1-5.6.043-.008,5.453-1.012-5.5-1.02-.937-5.258-.062-.348Z" transform="translate(477.008 160.168)" fill="#fff"/>
    <path id="Path_2492" data-name="Path 2492" d="M89.078,65.027l-.91,5.1-.059.008-5.437,1.012,5.5,1.02,1,5.6,1-5.6.043-.008,5.453-1.012-5.5-1.02-.937-5.258-.062-.348Z" transform="translate(979.008 88.168)" fill="#fff"/>
    <path id="Path_2169" data-name="Path 2169" d="M46.215,81.027l-.641,3.582-.043.008-3.82.711,3.863.719.7,3.938.7-3.937.031-.008,3.832-.711-3.863-.719-.66-3.691-.043-.246Z" transform="translate(499.008 566.168)" fill="#fff"/>
    <path id="Path_2499" data-name="Path 2499" d="M46.215,81.027l-.641,3.582-.043.008-3.82.711,3.863.719.7,3.938.7-3.937.031-.008,3.832-.711-3.863-.719-.66-3.691-.043-.246Z" transform="translate(1191.008 384.168)" fill="#fff"/>
    <path id="Path_2486" data-name="Path 2486" d="M46.215,81.027l-.641,3.582-.043.008-3.82.711,3.863.719.7,3.938.7-3.937.031-.008,3.832-.711-3.863-.719-.66-3.691-.043-.246Z" transform="translate(57.008 324.168)" fill="#fff"/>
    <path id="Path_2487" data-name="Path 2487" d="M46.215,81.027l-.641,3.582-.043.008-3.82.711,3.863.719.7,3.938.7-3.937.031-.008,3.832-.711-3.863-.719-.66-3.691-.043-.246Z" transform="translate(235.008 42.168)" fill="#fff"/>
    <path id="Path_2175" data-name="Path 2175" d="M46.215,81.027l-.641,3.582-.043.008-3.82.711,3.863.719.7,3.938.7-3.937.031-.008,3.832-.711-3.863-.719-.66-3.691-.043-.246Z" transform="translate(3.008 676.168)" fill="#fff"/>
    <path id="Path_2489" data-name="Path 2489" d="M46.215,81.027l-.641,3.582-.043.008-3.82.711,3.863.719.7,3.938.7-3.937.031-.008,3.832-.711-3.863-.719-.66-3.691-.043-.246Z" transform="translate(477.008 160.168)" fill="#fff"/>
    <path id="Path_2495" data-name="Path 2495" d="M46.215,81.027l-.641,3.582-.043.008-3.82.711,3.863.719.7,3.938.7-3.937.031-.008,3.832-.711-3.863-.719-.66-3.691-.043-.246Z" transform="translate(917.008 85.168)" fill="#fff"/>
    <path id="Path_2170" data-name="Path 2170" d="M60.035,15.52l-.641,3.586-.043.008-3.82.707,3.863.719.7,3.941.7-3.941.031,0,3.832-.715L60.8,19.106l-.66-3.7-.043-.246Z" transform="translate(539.008 484.168)" fill="#fff"/>
    <path id="Path_2482" data-name="Path 2482" d="M60.035,15.52l-.641,3.586-.043.008-3.82.707,3.863.719.7,3.941.7-3.941.031,0,3.832-.715L60.8,19.106l-.66-3.7-.043-.246Z" transform="translate(149.008 132.168)" fill="#fff"/>
    <path id="Path_2171" data-name="Path 2171" d="M89.117,37.754l-.484,2.73-.031,0-2.914.543,2.945.547.535,3,.535-3,.023,0,2.922-.543L89.7,40.485l-.5-2.812-.031-.191Z" transform="translate(499.008 546.168)" fill="#fff"/>
    <path id="Path_2504" data-name="Path 2504" d="M89.117,37.754l-.484,2.73-.031,0-2.914.543,2.945.547.535,3,.535-3,.023,0,2.922-.543L89.7,40.485l-.5-2.812-.031-.191Z" transform="translate(347.008 624.168)" fill="#fff"/>
    <path id="Path_2501" data-name="Path 2501" d="M89.117,37.754l-.484,2.73-.031,0-2.914.543,2.945.547.535,3,.535-3,.023,0,2.922-.543L89.7,40.485l-.5-2.812-.031-.191Z" transform="translate(1191.008 364.168)" fill="#fff"/>
    <path id="Path_2483" data-name="Path 2483" d="M89.117,37.754l-.484,2.73-.031,0-2.914.543,2.945.547.535,3,.535-3,.023,0,2.922-.543L89.7,40.485l-.5-2.812-.031-.191Z" transform="translate(-53.992 288.168)" fill="#fff"/>
  </g>
</svg>
