<svg xmlns="http://www.w3.org/2000/svg" width="48" height="48" viewBox="0 0 48 48">
  <g id="Group_5874" data-name="Group 5874" transform="translate(-567 -3977)">
    <circle id="Oval" cx="24" cy="24" r="24" transform="translate(567 3977)" fill="#edf4fc"/>
    <path id="Shape" d="M12,24A12,12,0,0,1,3.515,3.515,12,12,0,1,1,20.485,20.485,11.922,11.922,0,0,1,12,24ZM12,2A9.992,9.992,0,0,0,4.251,18.31a2.383,2.383,0,0,1,1.868-1.246l.142-.033c1.569-.362,3.05-.7,3.433-1.552a1.5,1.5,0,0,0-.182-1.36c-2.194-4.047-1.52-6.332-.924-7.334A3.826,3.826,0,0,1,12,5a3.812,3.812,0,0,1,3.388,1.756c1.029,1.709.71,4.323-.9,7.362a1.513,1.513,0,0,0-.172,1.365c.387.847,1.887,1.193,3.476,1.559l.089.021a2.4,2.4,0,0,1,1.871,1.241A9.993,9.993,0,0,0,12,2Z" transform="translate(579 3989)" fill="#29abe2"/>
  </g>
</svg>
